<svg xmlns="http://www.w3.org/2000/svg" xmlns:xlink="http://www.w3.org/1999/xlink" xmlns:lucid="lucid" width="2100.16" height="809.84"><g transform="translate(-36.168499472047756 -36.168499472047756)" lucid:page-tab-id="G4~VM2ueSHYs"><path d="M977.08 274.33h300v140h-300z" stroke="#c92d39" stroke-width="2" fill="#ffbbb1"/><path d="M977.08 274.33h300v40h-300z" stroke="#000" stroke-opacity="0" stroke-width="2" fill="#fff" fill-opacity="0"/><use xlink:href="#a" transform="matrix(1,0,0,1,982.0755803283942,279.32558032839404) translate(73.14999999999999 18.15)"/><use xlink:href="#b" transform="matrix(1,0,0,1,982.0755803283942,279.32558032839404) translate(131 18.15)"/><path class="lucid-link lucid-hotspot lucid-overlay-hotspot" d="M977.08 274.33h300v40h-300z" fill="none"/><a xlink:href="https://dotnet.microsoft.com/apps/xamarin" target="_blank"><path d="M977.08 314.33h300v20h-300z" stroke="#000" stroke-opacity="0" stroke-width="2" fill="#fff" fill-opacity="0"/><use xlink:href="#c" transform="matrix(1,0,0,1,982.0755803283942,319.32558032839404) translate(84 10.666666666666668)"/><use xlink:href="#d" transform="matrix(1,0,0,1,982.0755803283942,319.32558032839404) translate(152.77777777777777 10.666666666666668)"/><path class="lucid-link lucid-hotspot lucid-overlay-hotspot" d="M977.08 314.33h300v20h-300z" fill="none"/></a><path d="M977.08 334.33h300v80h-300z" stroke="#000" stroke-opacity="0" stroke-width="2" fill="#fff" fill-opacity="0"/><use xlink:href="#e" transform="matrix(1,0,0,1,982.0755803283942,339.32558032839404) translate(8.111111111111086 30.354166666666668)"/><use xlink:href="#f" transform="matrix(1,0,0,1,982.0755803283942,339.32558032839404) translate(63.592592592592574 30.354166666666668)"/><use xlink:href="#g" transform="matrix(1,0,0,1,982.0755803283942,339.32558032839404) translate(133.14814814814812 30.354166666666668)"/><use xlink:href="#h" transform="matrix(1,0,0,1,982.0755803283942,339.32558032839404) translate(187.88888888888889 30.354166666666668)"/><use xlink:href="#i" transform="matrix(1,0,0,1,982.0755803283942,339.32558032839404) translate(202.7037037037037 30.354166666666668)"/><use xlink:href="#j" transform="matrix(1,0,0,1,982.0755803283942,339.32558032839404) translate(235.2962962962963 30.354166666666668)"/><use xlink:href="#k" transform="matrix(1,0,0,1,982.0755803283942,339.32558032839404) translate(58.42592592592594 46.35416666666667)"/><use xlink:href="#l" transform="matrix(1,0,0,1,982.0755803283942,339.32558032839404) translate(116.16666666666667 46.35416666666667)"/><use xlink:href="#m" transform="matrix(1,0,0,1,982.0755803283942,339.32558032839404) translate(164.98148148148147 46.35416666666667)"/><use xlink:href="#n" transform="matrix(1,0,0,1,982.0755803283942,339.32558032839404) translate(177.57407407407408 46.35416666666667)"/><path d="M677.08 584.33h300v140h-300z" stroke="#c92d39" stroke-width="2" fill="#ffbbb1"/><path d="M677.08 584.33h300v40h-300z" stroke="#000" stroke-opacity="0" stroke-width="2" fill="#fff" fill-opacity="0"/><use xlink:href="#o" transform="matrix(1,0,0,1,682.075580328394,589.325580328394) translate(85.07499999999999 18.15)"/><use xlink:href="#b" transform="matrix(1,0,0,1,682.075580328394,589.325580328394) translate(119.07499999999999 18.15)"/><a xlink:href="https://www.tensorflow.org" target="_blank"><path d="M677.08 624.33h300v20h-300z" stroke="#000" stroke-opacity="0" stroke-width="2" fill="#fff" fill-opacity="0"/><use xlink:href="#c" transform="matrix(1,0,0,1,682.075580328394,629.325580328394) translate(74.77777777777777 10.666666666666668)"/><use xlink:href="#p" transform="matrix(1,0,0,1,682.075580328394,629.325580328394) translate(143.55555555555554 10.666666666666668)"/><path class="lucid-link lucid-hotspot lucid-overlay-hotspot" d="M677.08 624.33h300v20h-300z" fill="none"/></a><path d="M677.08 644.33h300v80h-300z" stroke="#000" stroke-opacity="0" stroke-width="2" fill="#fff" fill-opacity="0"/><use xlink:href="#q" transform="matrix(1,0,0,1,682.075580328394,649.325580328394) translate(6.018518518518533 12.854166666666668)"/><use xlink:href="#r" transform="matrix(1,0,0,1,682.075580328394,649.325580328394) translate(57.83333333333335 12.854166666666668)"/><use xlink:href="#s" transform="matrix(1,0,0,1,682.075580328394,649.325580328394) translate(109.57407407407409 12.854166666666668)"/><use xlink:href="#t" transform="matrix(1,0,0,1,682.075580328394,649.325580328394) translate(156.16666666666669 12.854166666666668)"/><use xlink:href="#u" transform="matrix(1,0,0,1,682.075580328394,649.325580328394) translate(16.40740740740742 28.854166666666668)"/><use xlink:href="#v" transform="matrix(1,0,0,1,682.075580328394,649.325580328394) translate(43.740740740740755 28.854166666666668)"/><use xlink:href="#w" transform="matrix(1,0,0,1,682.075580328394,649.325580328394) translate(98.44444444444446 28.854166666666668)"/><use xlink:href="#x" transform="matrix(1,0,0,1,682.075580328394,649.325580328394) translate(144.81481481481484 28.854166666666668)"/><use xlink:href="#m" transform="matrix(1,0,0,1,682.075580328394,649.325580328394) translate(210.70370370370372 28.854166666666668)"/><use xlink:href="#y" transform="matrix(1,0,0,1,682.075580328394,649.325580328394) translate(223.2962962962963 28.854166666666668)"/><use xlink:href="#z" transform="matrix(1,0,0,1,682.075580328394,649.325580328394) translate(77.68518518518518 44.85416666666667)"/><use xlink:href="#A" transform="matrix(1,0,0,1,682.075580328394,649.325580328394) translate(113.94444444444443 44.85416666666667)"/><use xlink:href="#B" transform="matrix(1,0,0,1,682.075580328394,649.325580328394) translate(144.24074074074073 44.85416666666667)"/><use xlink:href="#C" transform="matrix(1,0,0,1,682.075580328394,649.325580328394) translate(194.53703703703707 44.85416666666667)"/><use xlink:href="#D" transform="matrix(1,0,0,1,682.075580328394,649.325580328394) translate(51.81481481481481 60.85416666666667)"/><use xlink:href="#E" transform="matrix(1,0,0,1,682.075580328394,649.325580328394) translate(113.88888888888889 60.85416666666667)"/><use xlink:href="#F" transform="matrix(1,0,0,1,682.075580328394,649.325580328394) translate(147.22222222222223 60.85416666666667)"/><use xlink:href="#G" transform="matrix(1,0,0,1,682.075580328394,649.325580328394) translate(187.88888888888889 60.85416666666667)"/><path d="M107.17 77.17h40v-40h80v40h40v80h-40v40h-80v-40h-40z" stroke="#834187" stroke-width="2" fill="#b391b5"/><path d="M37.17 122.67a20 20 0 0 1 20-20h260a20 20 0 0 1 20 20v100a20 20 0 0 1-20 20h-260a20 20 0 0 1-20-20z" stroke="#834187" stroke-width="2" fill="#b391b5"/><path d="M37.17 102.67h300v40h-300z" stroke="#000" stroke-opacity="0" stroke-width="2" fill-opacity="0"/><use xlink:href="#H" transform="matrix(1,0,0,1,42.168499472047756,107.66849947204776) translate(78.14999999999999 18.15)"/><use xlink:href="#I" transform="matrix(1,0,0,1,42.168499472047756,107.66849947204776) translate(146.95 18.15)"/><path d="M37.17 142.67h300v20h-300z" stroke="#000" stroke-opacity="0" stroke-width="2" fill-opacity="0"/><use xlink:href="#J" transform="matrix(1,0,0,1,42.168499472047756,147.66849947204776) translate(120.20370370370371 10.666666666666668)"/><path d="M37.17 157.17h300v80h-300z" stroke="#000" stroke-opacity="0" stroke-width="2" fill-opacity="0"/><use xlink:href="#K" transform="matrix(1,0,0,1,42.168499472047756,162.16849947204776) translate(51.42592592592591 30.354166666666668)"/><use xlink:href="#L" transform="matrix(1,0,0,1,42.168499472047756,162.16849947204776) translate(117.31481481481481 30.354166666666668)"/><use xlink:href="#M" transform="matrix(1,0,0,1,42.168499472047756,162.16849947204776) translate(191.31481481481484 30.354166666666668)"/><use xlink:href="#N" transform="matrix(1,0,0,1,42.168499472047756,162.16849947204776) translate(53.29629629629629 46.35416666666667)"/><use xlink:href="#O" transform="matrix(1,0,0,1,42.168499472047756,162.16849947204776) translate(68.11111111111111 46.35416666666667)"/><use xlink:href="#P" transform="matrix(1,0,0,1,42.168499472047756,162.16849947204776) translate(116.22222222222221 46.35416666666667)"/><use xlink:href="#Q" transform="matrix(1,0,0,1,42.168499472047756,162.16849947204776) translate(173.85185185185185 46.35416666666667)"/><path d="M297.17 131.67h3v111h-3zM77.17 131.67h3v111h-3z" stroke="#834187" stroke-width="2" fill="#b391b5"/><path d="M172.67 87.92c0 7.04-5.7 12.75-12.75 12.75-7.04 0-12.75-5.7-12.75-12.75 0-7.04 5.7-12.75 12.75-12.75 7.04 0 12.75 5.7 12.75 12.75zM228.67 87.92c0 7.04-5.7 12.75-12.75 12.75-7.04 0-12.75-5.7-12.75-12.75 0-7.04 5.7-12.75 12.75-12.75 7.04 0 12.75 5.7 12.75 12.75z" stroke="#834187" stroke-width="2" fill="#fff"/><path d="M338.17 157.17h9.85m9.85 0h19.7m9.85 0h19.7m9.85 0h19.7m9.86 0h19.7m9.85 0h19.7m9.85 0h19.7m9.85 0h19.7m9.85 0h19.7m9.86 0H614m9.84 0h19.7m9.85 0h19.7m9.84 0h19.7m9.86 0h19.7m9.85 0h19.7m9.85 0h19.7m9.85 0h19.7m9.85 0h19.7m9.86 0h19.7m9.85 0h19.7m9.86 0h19.7m9.85 0h19.7m9.86 0h19.7m9.86 0h19.7m9.85 0h19.7m9.85 0h19.7m9.85 0h19.7m9.85 0h.86v18.85m0 9.85v19.7m0 9.85v19.7m0 9.85v9.85" stroke="#b2b2b2" stroke-width="2" fill="none"/><path d="M338.2 158.14h-1.03v-.97h-3v-.98h4.02z" stroke="#b2b2b2" stroke-width=".05" fill="#b2b2b2"/><path d="M1127.08 270.1l-4.64-14.28h9.27z" stroke="#b2b2b2" stroke-width="2" fill="#b2b2b2"/><path d="M294.17 104.42h240v60h-240z" stroke="#000" stroke-opacity="0" stroke-width="2" fill="#fff" fill-opacity="0"/><use xlink:href="#R" transform="matrix(1,0,0,1,299.1694013426585,109.41849947204776) translate(94.525 30.025)"/><path d="M1835.33 564.42h300v140h-300z" stroke="#666" stroke-width="2" fill="#ccc"/><a xlink:href="https://www.ansys.com/products/systems/ansys-vrxperience" target="_blank"><path d="M1835.33 564.42h300v40h-300z" stroke="#000" stroke-opacity="0" stroke-width="2" fill-opacity="0"/><use xlink:href="#S" transform="matrix(1,0,0,1,1840.3302946691433,569.4184994720478) translate(120.525 18.15)"/><path class="lucid-link lucid-hotspot lucid-overlay-hotspot" d="M1835.33 564.42h300v40h-300z" fill="none"/></a><path d="M1835.33 604.42h300v20h-300z" stroke="#000" stroke-opacity="0" stroke-width="2" fill-opacity="0"/><use xlink:href="#T" transform="matrix(1,0,0,1,1840.3302946691433,609.4184994720478) translate(90.98148148148148 10.666666666666668)"/><use xlink:href="#U" transform="matrix(1,0,0,1,1840.3302946691433,609.4184994720478) translate(150.9074074074074 10.666666666666668)"/><path d="M1835.33 624.42h300v80h-300z" stroke="#000" stroke-opacity="0" stroke-width="2" fill-opacity="0"/><use xlink:href="#e" transform="matrix(1,0,0,1,1840.3302946691433,629.4184994720478) translate(29.68518518518519 30.354166666666668)"/><use xlink:href="#V" transform="matrix(1,0,0,1,1840.3302946691433,629.4184994720478) translate(85.16666666666669 30.354166666666668)"/><use xlink:href="#W" transform="matrix(1,0,0,1,1840.3302946691433,629.4184994720478) translate(139.12962962962965 30.354166666666668)"/><use xlink:href="#h" transform="matrix(1,0,0,1,1840.3302946691433,629.4184994720478) translate(190.0925925925926 30.354166666666668)"/><use xlink:href="#X" transform="matrix(1,0,0,1,1840.3302946691433,629.4184994720478) translate(204.90740740740742 30.354166666666668)"/><use xlink:href="#Y" transform="matrix(1,0,0,1,1840.3302946691433,629.4184994720478) translate(236.6851851851852 30.354166666666668)"/><use xlink:href="#Z" transform="matrix(1,0,0,1,1840.3302946691433,629.4184994720478) translate(92.12962962962962 46.35416666666667)"/><use xlink:href="#aa" transform="matrix(1,0,0,1,1840.3302946691433,629.4184994720478) translate(140.24074074074073 46.35416666666667)"/><path d="M1557.17 584.42h240v60h-240z" stroke="#000" stroke-opacity="0" stroke-width="2" fill="#fff" fill-opacity="0"/><g><use xlink:href="#ab" transform="matrix(1,0,0,1,1562.1684994720476,589.4184994720478) translate(23.674999999999997 30.025)"/><use xlink:href="#ac" transform="matrix(1,0,0,1,1562.1684994720476,589.4184994720478) translate(92.625 30.025)"/><use xlink:href="#ad" transform="matrix(1,0,0,1,1562.1684994720476,589.4184994720478) translate(170.425 30.025)"/></g><path d="M1207.08 584.33h260v100h-260z" stroke="#c92d39" stroke-width="2" fill="#ffbbb1"/><path d="M1467.08 679.33c0 30.37-58.2 55-130 55s-130-24.63-130-55c0-30.38 58.2-55 130-55s130 24.62 130 55z" stroke="#c92d39" stroke-width="2" fill="#ffbbb1"/><path d="M1465.43 674.33c0 27.6-57.48 50-128.4 50-70.9 0-128.38-22.4-128.38-50 0-27.62 57.48-50 128.4-50 70.9 0 128.38 22.38 128.38 50z" stroke="#ffbbb1" stroke-width="2" fill="#ffbbb1"/><path d="M1217.08 614.33h240v120h-240z" stroke="#000" stroke-opacity="0" stroke-width="2" fill="#fff" fill-opacity="0"/><g><use xlink:href="#ae" transform="matrix(1,0,0,1,1222.0755803283942,619.325580328394) translate(7.018518518518505 48.47916666666667)"/><use xlink:href="#af" transform="matrix(1,0,0,1,1222.0755803283942,619.325580328394) translate(49.20370370370369 48.47916666666667)"/><use xlink:href="#P" transform="matrix(1,0,0,1,1222.0755803283942,619.325580328394) translate(103.94444444444443 48.47916666666667)"/><use xlink:href="#m" transform="matrix(1,0,0,1,1222.0755803283942,619.325580328394) translate(161.57407407407408 48.47916666666667)"/><use xlink:href="#ag" transform="matrix(1,0,0,1,1222.0755803283942,619.325580328394) translate(174.16666666666666 48.47916666666667)"/><use xlink:href="#V" transform="matrix(1,0,0,1,1222.0755803283942,619.325580328394) translate(51.75925925925925 64.47916666666667)"/><use xlink:href="#ah" transform="matrix(1,0,0,1,1222.0755803283942,619.325580328394) translate(105.72222222222223 64.47916666666667)"/><use xlink:href="#ai" transform="matrix(1,0,0,1,1222.0755803283942,619.325580328394) translate(153.05555555555554 64.47916666666667)"/></g><path d="M1467.08 584.33c0 27.6-58.2 50-130 50s-130-22.4-130-50c0-27.62 58.2-50 130-50s130 22.38 130 50z" stroke="#c92d39" stroke-width="2" fill="#ffbbb1"/><path d="M1217.08 544.33h240v60h-240z" stroke="#000" stroke-opacity="0" stroke-width="2" fill="#fff" fill-opacity="0"/><g><use xlink:href="#aj" transform="matrix(1,0,0,1,1222.0755803283942,549.325580328394) translate(56.12499999999999 30.025)"/><use xlink:href="#ak" transform="matrix(1,0,0,1,1222.0755803283942,549.325580328394) translate(133.925 30.025)"/></g><a xlink:href="https://www.mongodb.com" target="_blank"><path d="M1187.08 592.33h300v20h-300z" stroke="#000" stroke-opacity="0" stroke-width="2" fill="#fff" fill-opacity="0"/><use xlink:href="#c" transform="matrix(1,0,0,1,1192.0755803283942,597.325580328394) translate(79.16666666666666 10.666666666666668)"/><use xlink:href="#al" transform="matrix(1,0,0,1,1192.0755803283942,597.325580328394) translate(147.94444444444446 10.666666666666668)"/><path class="lucid-link lucid-hotspot lucid-overlay-hotspot" d="M1187.08 592.33h300v20h-300z" fill="none"/></a><path d="M979.08 634.33H989m9.93 0h19.86m9.92 0h19.86m9.92 0h19.86m9.93 0h19.85m9.92 0h19.86m9.93 0h19.86m9.92 0h9.93" stroke="#999" stroke-width="2" fill="none"/><path d="M979.1 635.3h-1.02v-1.95h1.02z" stroke="#999" stroke-width=".05" fill="#999"/><path d="M1202.84 634.33l-14.27 4.63v-9.27z" stroke="#999" stroke-width="2" fill="#999"/><path d="M967.08 584.42h240v60h-240z" stroke="#000" stroke-opacity="0" stroke-width="2" fill="#fff" fill-opacity="0"/><g><use xlink:href="#am" transform="matrix(1,0,0,1,972.0755803283942,589.4184994720478) translate(44.625 30.025)"/><use xlink:href="#an" transform="matrix(1,0,0,1,972.0755803283942,589.4184994720478) translate(101.575 30.025)"/><use xlink:href="#ao" transform="matrix(1,0,0,1,972.0755803283942,589.4184994720478) translate(170.375 30.025)"/></g><path d="M1127.08 415.33v10m0 10.02v20.02m0 10v20.03m0 10v3.93h-16.12m-10 0h-20.03m-10 0h-20.03m-10 0h-20.04m-10 0h-20.03m-10 0H960.8m-10 0h-20.03m-10 0H900.7m-10 0H870.7m-10 0h-20.03m-10 0h-3.6v16.44m0 10v20.03m0 10v10.02" stroke="#999" stroke-width="2" fill="none"/><path d="M1128.05 415.35h-1.95v-1.02h1.95z" stroke="#999" stroke-width=".05" fill="#999"/><path d="M827.08 581.1l-4.64-14.28h9.27z" stroke="#999" stroke-width="2" fill="#999"/><path d="M837.17 452.42h240v60h-240z" stroke="#000" stroke-opacity="0" stroke-width="2" fill="#fff" fill-opacity="0"/><g><use xlink:href="#ap" transform="matrix(1,0,0,1,842.1684994720478,457.4184994720478) translate(55.575 30.025)"/><use xlink:href="#aq" transform="matrix(1,0,0,1,842.1684994720478,457.4184994720478) translate(113.525 30.025)"/><use xlink:href="#ar" transform="matrix(1,0,0,1,842.1684994720478,457.4184994720478) translate(147.525 30.025)"/></g><path d="M1834.33 634.33h-9.66m-9.66 0h-19.3m-9.67 0h-19.32m-9.65 0h-19.32m-9.66 0h-19.32m-9.66 0h-19.33m-9.66 0h-19.3m-9.67 0h-19.32m-9.64 0h-19.33m-9.65 0h-19.32m-9.66 0h-19.32m-9.66 0h-19.32m-9.66 0h-9.66" stroke="#999" stroke-width="2" fill="none"/><path d="M1835.33 635.3h-1.02v-1.95h1.03z" stroke="#999" stroke-width=".05" fill="#999"/><path d="M1471.3 634.33l14.28-4.64v9.26z" stroke="#999" stroke-width="2" fill="#999"/><path d="M537.17 274.33h300v140h-300z" stroke="#c92d39" stroke-width="2" fill="#ffbbb1"/><path d="M537.17 274.33h300v40h-300z" stroke="#000" stroke-opacity="0" stroke-width="2" fill="#fff" fill-opacity="0"/><g><use xlink:href="#as" transform="matrix(1,0,0,1,542.1684994720478,279.32558032839404) translate(81.275 18.15)"/><use xlink:href="#b" transform="matrix(1,0,0,1,542.1684994720478,279.32558032839404) translate(122.875 18.15)"/></g><path d="M537.17 314.33h300v20h-300z" stroke="#000" stroke-opacity="0" stroke-width="2" fill="#fff" fill-opacity="0"/><g><use xlink:href="#c" transform="matrix(1,0,0,1,542.1684994720478,319.32558032839404) translate(73.0185185185185 10.666666666666668)"/><use xlink:href="#at" transform="matrix(1,0,0,1,542.1684994720478,319.32558032839404) translate(141.7962962962963 10.666666666666668)"/></g><path d="M537.17 334.33h300v80h-300z" stroke="#000" stroke-opacity="0" stroke-width="2" fill="#fff" fill-opacity="0"/><g><use xlink:href="#e" transform="matrix(1,0,0,1,542.1684994720478,339.32558032839404) translate(7.092592592592609 30.354166666666668)"/><use xlink:href="#au" transform="matrix(1,0,0,1,542.1684994720478,339.32558032839404) translate(62.5740740740741 30.354166666666668)"/><use xlink:href="#W" transform="matrix(1,0,0,1,542.1684994720478,339.32558032839404) translate(104.64814814814818 30.354166666666668)"/><use xlink:href="#h" transform="matrix(1,0,0,1,542.1684994720478,339.32558032839404) translate(155.61111111111114 30.354166666666668)"/><use xlink:href="#av" transform="matrix(1,0,0,1,542.1684994720478,339.32558032839404) translate(170.42592592592595 30.354166666666668)"/><use xlink:href="#aw" transform="matrix(1,0,0,1,542.1684994720478,339.32558032839404) translate(214.0925925925926 30.354166666666668)"/><use xlink:href="#B" transform="matrix(1,0,0,1,542.1684994720478,339.32558032839404) translate(109.1111111111111 46.35416666666667)"/><use xlink:href="#ax" transform="matrix(1,0,0,1,542.1684994720478,339.32558032839404) translate(159.40740740740742 46.35416666666667)"/></g><path d="M338.17 157.17h9.92m9.92 0h19.85m9.93 0h19.85m9.92 0h19.86m9.92 0h19.85m9.93 0h19.85m9.92 0h19.86m9.92 0h19.85m9.93 0h19.85m9.94 0h19.85m9.9 0h19.86m9.93 0h19.84m9.93 0h1.6v18.25m0 9.92v19.85m0 9.92v19.85m0 9.93v9.92" stroke="#b2b2b2" stroke-width="2" fill="none"/><path d="M338.2 158.14h-1.03v-.97h-3v-.98h4.02z" stroke="#b2b2b2" stroke-width=".05" fill="#b2b2b2"/><path d="M687.17 270.1l-4.64-14.28h9.27z" stroke="#b2b2b2" stroke-width="2" fill="#b2b2b2"/><path d="M687.17 415.33V425m0 9.7v19.35m0 9.68v19.36m0 9.67v6.56h12.8m9.68 0H729m9.7 0h19.35m9.68 0h19.36m9.67 0h19.36m9.68 0h1.28v18.1m0 9.67v19.36m0 9.68v9.68" stroke="#999" stroke-width="2" fill="none"/><path d="M688.14 415.35h-1.95v-1.02h1.94z" stroke="#999" stroke-width=".05" fill="#999"/><path d="M827.08 581.1l-4.64-14.28h9.27z" stroke="#999" stroke-width="2" fill="#999"/><g class="lucid-layer" lucid:layer-id="G4~Vkr5SSXf9" display="block"><path d="M457.17 204.42h1059.25v640.1H457.17z" fill-opacity="0"/><path d="M486.6 204.42H516m14.7 0h29.43m14.7 0h29.44m14.7 0h29.42m14.72 0h29.42m14.7 0h29.43m14.7 0h29.43m14.7 0h29.44m14.7 0h29.43m14.7 0h29.44m14.7 0h29.43m14.7 0h29.44m14.72 0h29.42m14.72 0h29.42m14.7 0h29.43m14.73 0h29.42m14.7 0h29.44m14.7 0h29.42m14.7 0h29.44m14.7 0h29.43m14.7 0h29.43m14.7 0h29.43m14.72 0H1487m14.7 0h14.72v15.24m0 15.24v30.48m0 15.24v30.48m0 15.24v30.48m0 15.24v30.48m0 15.24v30.48m0 15.24v30.48m0 15.25v30.48m0 15.25v30.48m0 15.24v30.48m0 15.24v30.47m0 15.24v30.5m0 15.23v30.48m0 15.25v30.48m0 15.24v15.24h-14.7m-14.72 0h-29.42m-14.7 0h-29.44m-14.7 0h-29.43m-14.7 0h-29.43m-14.7 0h-29.44m-14.7 0h-29.43m-14.7 0h-29.44m-14.7 0h-29.43m-14.72 0h-29.4m-14.72 0h-29.42m-14.72 0h-29.42m-14.7 0h-29.44m-14.7 0h-29.43m-14.7 0H883.8m-14.7 0h-29.42m-14.7 0h-29.44m-14.7 0H751.4m-14.7 0h-29.43m-14.7 0h-29.44m-14.7 0H619m-14.7 0h-29.44m-14.7 0h-29.43m-14.7 0h-29.44m-14.72 0h-14.7v-15.23m0-15.24v-30.48m0-15.24v-30.47m0-15.24v-30.5m0-15.23V646.4m0-15.25v-30.48m0-15.24v-30.48m0-15.25v-30.48m0-15.24V463.5m0-15.24v-30.48m0-15.24v-30.48m0-15.24v-30.48m0-15.24v-30.48m0-15.24V234.9m0-15.24v-15.24h14.7" stroke="#666" stroke-width="3" fill="none"/><use xlink:href="#ay" transform="matrix(1,0,0,1,462.16849947204776,209.41849947204776) translate(0 611.8013196799999)"/><use xlink:href="#az" transform="matrix(1,0,0,1,462.16849947204776,209.41849947204776) translate(0 629.6679863466666)"/><use xlink:href="#aA" transform="matrix(1,0,0,1,462.16849947204776,209.41849947204776) translate(59.92592592592592 629.6679863466666)"/></g><defs><path d="M240 0l2-218c-23 76-54 145-80 218h-23L58-218 59 0H30v-248h44l77 211c21-75 51-140 76-211h43V0h-30" id="aB"/><path d="M100-194c62-1 85 37 85 99 1 63-27 99-86 99S16-35 15-95c0-66 28-99 85-99zM99-20c44 1 53-31 53-75 0-43-8-75-51-75s-53 32-53 75 10 74 51 75" id="aC"/><path d="M115-194c53 0 69 39 70 98 0 66-23 100-70 100C84 3 66-7 56-30L54 0H23l1-261h32v101c10-23 28-34 59-34zm-8 174c40 0 45-34 45-75 0-40-5-75-45-74-42 0-51 32-51 76 0 43 10 73 51 73" id="aD"/><path d="M24-231v-30h32v30H24zM24 0v-190h32V0H24" id="aE"/><path d="M24 0v-261h32V0H24" id="aF"/><path d="M100-194c63 0 86 42 84 106H49c0 40 14 67 53 68 26 1 43-12 49-29l28 8c-11 28-37 45-77 45C44 4 14-33 15-96c1-61 26-98 85-98zm52 81c6-60-76-77-97-28-3 7-6 17-6 28h103" id="aG"/><g id="a"><use transform="matrix(0.05,0,0,0.05,0,0)" xlink:href="#aB"/><use transform="matrix(0.05,0,0,0.05,14.950000000000001,0)" xlink:href="#aC"/><use transform="matrix(0.05,0,0,0.05,24.950000000000003,0)" xlink:href="#aD"/><use transform="matrix(0.05,0,0,0.05,34.95,0)" xlink:href="#aE"/><use transform="matrix(0.05,0,0,0.05,38.900000000000006,0)" xlink:href="#aF"/><use transform="matrix(0.05,0,0,0.05,42.85000000000001,0)" xlink:href="#aG"/></g><path d="M141-36C126-15 110 5 73 4 37 3 15-17 15-53c-1-64 63-63 125-63 3-35-9-54-41-54-24 1-41 7-42 31l-33-3c5-37 33-52 76-52 45 0 72 20 72 64v82c-1 20 7 32 28 27v20c-31 9-61-2-59-35zM48-53c0 20 12 33 32 33 41-3 63-29 60-74-43 2-92-5-92 41" id="aH"/><path d="M115-194c55 1 70 41 70 98S169 2 115 4C84 4 66-9 55-30l1 105H24l-1-265h31l2 30c10-21 28-34 59-34zm-8 174c40 0 45-34 45-75s-6-73-45-74c-42 0-51 32-51 76 0 43 10 73 51 73" id="aI"/><path d="M96-169c-40 0-48 33-48 73s9 75 48 75c24 0 41-14 43-38l32 2c-6 37-31 61-74 61-59 0-76-41-82-99-10-93 101-131 147-64 4 7 5 14 7 22l-32 3c-4-21-16-35-41-35" id="aJ"/><path d="M59-47c-2 24 18 29 38 22v24C64 9 27 4 27-40v-127H5v-23h24l9-43h21v43h35v23H59v120" id="aK"/><path d="M117-194c89-4 53 116 60 194h-32v-121c0-31-8-49-39-48C34-167 62-67 57 0H25l-1-190h30c1 10-1 24 2 32 11-22 29-35 61-36" id="aL"/><g id="b"><use transform="matrix(0.05,0,0,0.05,0,0)" xlink:href="#aH"/><use transform="matrix(0.05,0,0,0.05,10,0)" xlink:href="#aI"/><use transform="matrix(0.05,0,0,0.05,20,0)" xlink:href="#aI"/><use transform="matrix(0.05,0,0,0.05,30,0)" xlink:href="#aF"/><use transform="matrix(0.05,0,0,0.05,33.95,0)" xlink:href="#aE"/><use transform="matrix(0.05,0,0,0.05,37.900000000000006,0)" xlink:href="#aJ"/><use transform="matrix(0.05,0,0,0.05,46.900000000000006,0)" xlink:href="#aH"/><use transform="matrix(0.05,0,0,0.05,56.900000000000006,0)" xlink:href="#aK"/><use transform="matrix(0.05,0,0,0.05,61.900000000000006,0)" xlink:href="#aE"/><use transform="matrix(0.05,0,0,0.05,65.85000000000001,0)" xlink:href="#aC"/><use transform="matrix(0.05,0,0,0.05,75.85000000000001,0)" xlink:href="#aL"/></g><path fill="#fff" d="M26 75v-336h71v23H56V52h41v23H26" id="aM"/><path fill="#fff" d="M212-179c-10-28-35-45-73-45-59 0-87 40-87 99 0 60 29 101 89 101 43 0 62-24 78-52l27 14C228-24 195 4 139 4 59 4 22-46 18-125c-6-104 99-153 187-111 19 9 31 26 39 46" id="aN"/><path fill="#fff" d="M100-194c62-1 85 37 85 99 1 63-27 99-86 99S16-35 15-95c0-66 28-99 85-99zM99-20c44 1 53-31 53-75 0-43-8-75-51-75s-53 32-53 75 10 74 51 75" id="aO"/><path fill="#fff" d="M117-194c89-4 53 116 60 194h-32v-121c0-31-8-49-39-48C34-167 62-67 57 0H25l-1-190h30c1 10-1 24 2 32 11-22 29-35 61-36" id="aP"/><path fill="#fff" d="M59-47c-2 24 18 29 38 22v24C64 9 27 4 27-40v-127H5v-23h24l9-43h21v43h35v23H59v120" id="aQ"/><path fill="#fff" d="M141-36C126-15 110 5 73 4 37 3 15-17 15-53c-1-64 63-63 125-63 3-35-9-54-41-54-24 1-41 7-42 31l-33-3c5-37 33-52 76-52 45 0 72 20 72 64v82c-1 20 7 32 28 27v20c-31 9-61-2-59-35zM48-53c0 20 12 33 32 33 41-3 63-29 60-74-43 2-92-5-92 41" id="aR"/><path fill="#fff" d="M24-231v-30h32v30H24zM24 0v-190h32V0H24" id="aS"/><path fill="#fff" d="M100-194c63 0 86 42 84 106H49c0 40 14 67 53 68 26 1 43-12 49-29l28 8c-11 28-37 45-77 45C44 4 14-33 15-96c1-61 26-98 85-98zm52 81c6-60-76-77-97-28-3 7-6 17-6 28h103" id="aT"/><path fill="#fff" d="M114-163C36-179 61-72 57 0H25l-1-190h30c1 12-1 29 2 39 6-27 23-49 58-41v29" id="aU"/><path fill="#fff" d="M33-154v-36h34v36H33zM33 0v-36h34V0H33" id="aV"/><g id="c"><use transform="matrix(0.03703703703703704,0,0,0.03703703703703704,0,0)" xlink:href="#aM"/><use transform="matrix(0.03703703703703704,0,0,0.03703703703703704,3.703703703703704,0)" xlink:href="#aN"/><use transform="matrix(0.03703703703703704,0,0,0.03703703703703704,13.296296296296298,0)" xlink:href="#aO"/><use transform="matrix(0.03703703703703704,0,0,0.03703703703703704,20.703703703703706,0)" xlink:href="#aP"/><use transform="matrix(0.03703703703703704,0,0,0.03703703703703704,28.111111111111114,0)" xlink:href="#aQ"/><use transform="matrix(0.03703703703703704,0,0,0.03703703703703704,31.814814814814813,0)" xlink:href="#aR"/><use transform="matrix(0.03703703703703704,0,0,0.03703703703703704,39.22222222222223,0)" xlink:href="#aS"/><use transform="matrix(0.03703703703703704,0,0,0.03703703703703704,42.14814814814815,0)" xlink:href="#aP"/><use transform="matrix(0.03703703703703704,0,0,0.03703703703703704,49.55555555555556,0)" xlink:href="#aT"/><use transform="matrix(0.03703703703703704,0,0,0.03703703703703704,56.96296296296296,0)" xlink:href="#aU"/><use transform="matrix(0.03703703703703704,0,0,0.03703703703703704,61.37037037037037,0)" xlink:href="#aV"/></g><path fill="#fff" d="M195 0l-74-108L45 0H8l94-129-87-119h37l69 98 67-98h37l-84 118L233 0h-38" id="aW"/><path fill="#fff" d="M210-169c-67 3-38 105-44 169h-31v-121c0-29-5-50-35-48C34-165 62-65 56 0H25l-1-190h30c1 10-1 24 2 32 10-44 99-50 107 0 11-21 27-35 58-36 85-2 47 119 55 194h-31v-121c0-29-5-49-35-48" id="aX"/><path fill="#fff" d="M3 75V52h41v-290H3v-23h71V75H3" id="aY"/><g id="d"><use transform="matrix(0.03703703703703704,0,0,0.03703703703703704,0,0)" xlink:href="#aW"/><use transform="matrix(0.03703703703703704,0,0,0.03703703703703704,8.88888888888889,0)" xlink:href="#aR"/><use transform="matrix(0.03703703703703704,0,0,0.03703703703703704,16.296296296296298,0)" xlink:href="#aX"/><use transform="matrix(0.03703703703703704,0,0,0.03703703703703704,27.370370370370374,0)" xlink:href="#aR"/><use transform="matrix(0.03703703703703704,0,0,0.03703703703703704,34.777777777777786,0)" xlink:href="#aU"/><use transform="matrix(0.03703703703703704,0,0,0.03703703703703704,39.18518518518519,0)" xlink:href="#aS"/><use transform="matrix(0.03703703703703704,0,0,0.03703703703703704,42.111111111111114,0)" xlink:href="#aP"/><use transform="matrix(0.03703703703703704,0,0,0.03703703703703704,49.51851851851852,0)" xlink:href="#aY"/></g><path d="M30-248c87 1 191-15 191 75 0 78-77 80-158 76V0H30v-248zm33 125c57 0 124 11 124-50 0-59-68-47-124-48v98" id="aZ"/><path d="M114-163C36-179 61-72 57 0H25l-1-190h30c1 12-1 29 2 39 6-27 23-49 58-41v29" id="ba"/><path d="M108 0H70L1-190h34L89-25l56-165h34" id="bb"/><path d="M85-194c31 0 48 13 60 33l-1-100h32l1 261h-30c-2-10 0-23-3-31C134-8 116 4 85 4 32 4 16-35 15-94c0-66 23-100 70-100zm9 24c-40 0-46 34-46 75 0 40 6 74 45 74 42 0 51-32 51-76 0-42-9-74-50-73" id="bc"/><path d="M135-143c-3-34-86-38-87 0 15 53 115 12 119 90S17 21 10-45l28-5c4 36 97 45 98 0-10-56-113-15-118-90-4-57 82-63 122-42 12 7 21 19 24 35" id="bd"/><g id="e"><use transform="matrix(0.03703703703703704,0,0,0.03703703703703704,0,0)" xlink:href="#aZ"/><use transform="matrix(0.03703703703703704,0,0,0.03703703703703704,8.88888888888889,0)" xlink:href="#ba"/><use transform="matrix(0.03703703703703704,0,0,0.03703703703703704,13.296296296296298,0)" xlink:href="#aC"/><use transform="matrix(0.03703703703703704,0,0,0.03703703703703704,20.703703703703706,0)" xlink:href="#bb"/><use transform="matrix(0.03703703703703704,0,0,0.03703703703703704,27.370370370370374,0)" xlink:href="#aE"/><use transform="matrix(0.03703703703703704,0,0,0.03703703703703704,30.2962962962963,0)" xlink:href="#bc"/><use transform="matrix(0.03703703703703704,0,0,0.03703703703703704,37.70370370370371,0)" xlink:href="#aG"/><use transform="matrix(0.03703703703703704,0,0,0.03703703703703704,45.111111111111114,0)" xlink:href="#bd"/></g><path d="M84 4C-5 8 30-112 23-190h32v120c0 31 7 50 39 49 72-2 45-101 50-169h31l1 190h-30c-1-10 1-25-2-33-11 22-28 36-60 37" id="be"/><g id="f"><use transform="matrix(0.03703703703703704,0,0,0.03703703703703704,0,0)" xlink:href="#be"/><use transform="matrix(0.03703703703703704,0,0,0.03703703703703704,7.407407407407408,0)" xlink:href="#aL"/><use transform="matrix(0.03703703703703704,0,0,0.03703703703703704,14.814814814814817,0)" xlink:href="#aJ"/><use transform="matrix(0.03703703703703704,0,0,0.03703703703703704,21.481481481481485,0)" xlink:href="#aF"/><use transform="matrix(0.03703703703703704,0,0,0.03703703703703704,24.407407407407412,0)" xlink:href="#be"/><use transform="matrix(0.03703703703703704,0,0,0.03703703703703704,31.81481481481482,0)" xlink:href="#aK"/><use transform="matrix(0.03703703703703704,0,0,0.03703703703703704,35.518518518518526,0)" xlink:href="#aK"/><use transform="matrix(0.03703703703703704,0,0,0.03703703703703704,39.22222222222223,0)" xlink:href="#aG"/><use transform="matrix(0.03703703703703704,0,0,0.03703703703703704,46.62962962962963,0)" xlink:href="#ba"/><use transform="matrix(0.03703703703703704,0,0,0.03703703703703704,51.03703703703704,0)" xlink:href="#aG"/><use transform="matrix(0.03703703703703704,0,0,0.03703703703703704,58.44444444444444,0)" xlink:href="#bc"/></g><path d="M101-234c-31-9-42 10-38 44h38v23H63V0H32v-167H5v-23h27c-7-52 17-82 69-68v24" id="bf"/><g id="g"><use transform="matrix(0.03703703703703704,0,0,0.03703703703703704,0,0)" xlink:href="#aE"/><use transform="matrix(0.03703703703703704,0,0,0.03703703703703704,2.9259259259259265,0)" xlink:href="#aL"/><use transform="matrix(0.03703703703703704,0,0,0.03703703703703704,10.333333333333334,0)" xlink:href="#aK"/><use transform="matrix(0.03703703703703704,0,0,0.03703703703703704,14.037037037037038,0)" xlink:href="#aG"/><use transform="matrix(0.03703703703703704,0,0,0.03703703703703704,21.44444444444445,0)" xlink:href="#ba"/><use transform="matrix(0.03703703703703704,0,0,0.03703703703703704,25.85185185185186,0)" xlink:href="#bf"/><use transform="matrix(0.03703703703703704,0,0,0.03703703703703704,29.555555555555564,0)" xlink:href="#aH"/><use transform="matrix(0.03703703703703704,0,0,0.03703703703703704,36.962962962962976,0)" xlink:href="#aJ"/><use transform="matrix(0.03703703703703704,0,0,0.03703703703703704,43.62962962962964,0)" xlink:href="#aG"/></g><g id="h"><use transform="matrix(0.03703703703703704,0,0,0.03703703703703704,0,0)" xlink:href="#aK"/><use transform="matrix(0.03703703703703704,0,0,0.03703703703703704,3.703703703703704,0)" xlink:href="#aC"/></g><g id="i"><use transform="matrix(0.03703703703703704,0,0,0.03703703703703704,0,0)" xlink:href="#aG"/><use transform="matrix(0.03703703703703704,0,0,0.03703703703703704,7.407407407407408,0)" xlink:href="#aH"/><use transform="matrix(0.03703703703703704,0,0,0.03703703703703704,14.814814814814817,0)" xlink:href="#bd"/><use transform="matrix(0.03703703703703704,0,0,0.03703703703703704,21.481481481481485,0)" xlink:href="#aG"/></g><g id="j"><use transform="matrix(0.03703703703703704,0,0,0.03703703703703704,0,0)" xlink:href="#aI"/><use transform="matrix(0.03703703703703704,0,0,0.03703703703703704,7.407407407407408,0)" xlink:href="#aE"/><use transform="matrix(0.03703703703703704,0,0,0.03703703703703704,10.333333333333334,0)" xlink:href="#aJ"/><use transform="matrix(0.03703703703703704,0,0,0.03703703703703704,17.000000000000004,0)" xlink:href="#aK"/><use transform="matrix(0.03703703703703704,0,0,0.03703703703703704,20.70370370370371,0)" xlink:href="#be"/><use transform="matrix(0.03703703703703704,0,0,0.03703703703703704,28.111111111111118,0)" xlink:href="#ba"/><use transform="matrix(0.03703703703703704,0,0,0.03703703703703704,32.518518518518526,0)" xlink:href="#aG"/><use transform="matrix(0.03703703703703704,0,0,0.03703703703703704,39.92592592592594,0)" xlink:href="#bd"/></g><path d="M106-169C34-169 62-67 57 0H25v-261h32l-1 103c12-21 28-36 61-36 89 0 53 116 60 194h-32v-121c2-32-8-49-39-48" id="bg"/><path d="M177-190C167-65 218 103 67 71c-23-6-38-20-44-43l32-5c15 47 100 32 89-28v-30C133-14 115 1 83 1 29 1 15-40 15-95c0-56 16-97 71-98 29-1 48 16 59 35 1-10 0-23 2-32h30zM94-22c36 0 50-32 50-73 0-42-14-75-50-75-39 0-46 34-46 75s6 73 46 73" id="bh"/><path d="M68-38c1 34 0 65-14 84H32c9-13 17-26 17-46H33v-38h35" id="bi"/><g id="k"><use transform="matrix(0.03703703703703704,0,0,0.03703703703703704,0,0)" xlink:href="#bd"/><use transform="matrix(0.03703703703703704,0,0,0.03703703703703704,6.666666666666668,0)" xlink:href="#bg"/><use transform="matrix(0.03703703703703704,0,0,0.03703703703703704,14.074074074074076,0)" xlink:href="#aC"/><use transform="matrix(0.03703703703703704,0,0,0.03703703703703704,21.481481481481485,0)" xlink:href="#aC"/><use transform="matrix(0.03703703703703704,0,0,0.03703703703703704,28.888888888888893,0)" xlink:href="#aK"/><use transform="matrix(0.03703703703703704,0,0,0.03703703703703704,32.592592592592595,0)" xlink:href="#aE"/><use transform="matrix(0.03703703703703704,0,0,0.03703703703703704,35.51851851851852,0)" xlink:href="#aL"/><use transform="matrix(0.03703703703703704,0,0,0.03703703703703704,42.925925925925924,0)" xlink:href="#bh"/><use transform="matrix(0.03703703703703704,0,0,0.03703703703703704,50.33333333333333,0)" xlink:href="#bi"/></g><g id="l"><use transform="matrix(0.03703703703703704,0,0,0.03703703703703704,0,0)" xlink:href="#bd"/><use transform="matrix(0.03703703703703704,0,0,0.03703703703703704,6.666666666666668,0)" xlink:href="#aK"/><use transform="matrix(0.03703703703703704,0,0,0.03703703703703704,10.370370370370372,0)" xlink:href="#aE"/><use transform="matrix(0.03703703703703704,0,0,0.03703703703703704,13.296296296296298,0)" xlink:href="#aJ"/><use transform="matrix(0.03703703703703704,0,0,0.03703703703703704,19.962962962962965,0)" xlink:href="#bg"/><use transform="matrix(0.03703703703703704,0,0,0.03703703703703704,27.370370370370374,0)" xlink:href="#aE"/><use transform="matrix(0.03703703703703704,0,0,0.03703703703703704,30.2962962962963,0)" xlink:href="#aL"/><use transform="matrix(0.03703703703703704,0,0,0.03703703703703704,37.70370370370371,0)" xlink:href="#bh"/></g><path d="M234-2c-28 10-62 0-77-18C117 19 8 12 13-65c3-43 29-61 60-76-25-40-17-114 47-108 35 3 59 15 59 50 0 44-40 53-71 69 14 26 32 50 51 72 14-21 24-43 30-72l26 8c-9 33-21 57-38 82 13 13 33 22 57 15v23zM97-151c25-10 52-18 56-48-1-18-13-29-33-29-42 0-39 50-23 77zM42-66c-3 51 71 58 98 28-20-24-41-51-56-80-23 10-40 24-42 52" id="bj"/><use transform="matrix(0.03703703703703704,0,0,0.03703703703703704,0,0)" xlink:href="#bj" id="m"/><path d="M33 0v-38h34V0H33" id="bk"/><g id="n"><use transform="matrix(0.03703703703703704,0,0,0.03703703703703704,0,0)" xlink:href="#be"/><use transform="matrix(0.03703703703703704,0,0,0.03703703703703704,7.407407407407408,0)" xlink:href="#aI"/><use transform="matrix(0.03703703703703704,0,0,0.03703703703703704,14.814814814814817,0)" xlink:href="#aF"/><use transform="matrix(0.03703703703703704,0,0,0.03703703703703704,17.740740740740744,0)" xlink:href="#aC"/><use transform="matrix(0.03703703703703704,0,0,0.03703703703703704,25.148148148148152,0)" xlink:href="#bc"/><use transform="matrix(0.03703703703703704,0,0,0.03703703703703704,32.55555555555556,0)" xlink:href="#aE"/><use transform="matrix(0.03703703703703704,0,0,0.03703703703703704,35.48148148148148,0)" xlink:href="#aL"/><use transform="matrix(0.03703703703703704,0,0,0.03703703703703704,42.888888888888886,0)" xlink:href="#bh"/><use transform="matrix(0.03703703703703704,0,0,0.03703703703703704,50.2962962962963,0)" xlink:href="#bk"/></g><path d="M205 0l-28-72H64L36 0H1l101-248h38L239 0h-34zm-38-99l-47-123c-12 45-31 82-46 123h93" id="bl"/><path d="M33 0v-248h34V0H33" id="bm"/><g id="o"><use transform="matrix(0.05,0,0,0.05,0,0)" xlink:href="#bl"/><use transform="matrix(0.05,0,0,0.05,12,0)" xlink:href="#aZ"/><use transform="matrix(0.05,0,0,0.05,24,0)" xlink:href="#bm"/></g><path fill="#fff" d="M127-220V0H93v-220H8v-28h204v28h-85" id="bn"/><path fill="#fff" d="M135-143c-3-34-86-38-87 0 15 53 115 12 119 90S17 21 10-45l28-5c4 36 97 45 98 0-10-56-113-15-118-90-4-57 82-63 122-42 12 7 21 19 24 35" id="bo"/><path fill="#fff" d="M63-220v92h138v28H63V0H30v-248h175v28H63" id="bp"/><path fill="#fff" d="M24 0v-261h32V0H24" id="bq"/><path fill="#fff" d="M206 0h-36l-40-164L89 0H53L-1-190h32L70-26l43-164h34l41 164 42-164h31" id="br"/><g id="p"><use transform="matrix(0.03703703703703704,0,0,0.03703703703703704,0,0)" xlink:href="#bn"/><use transform="matrix(0.03703703703703704,0,0,0.03703703703703704,6.629629629629631,0)" xlink:href="#aT"/><use transform="matrix(0.03703703703703704,0,0,0.03703703703703704,14.037037037037038,0)" xlink:href="#aP"/><use transform="matrix(0.03703703703703704,0,0,0.03703703703703704,21.444444444444446,0)" xlink:href="#bo"/><use transform="matrix(0.03703703703703704,0,0,0.03703703703703704,28.111111111111114,0)" xlink:href="#aO"/><use transform="matrix(0.03703703703703704,0,0,0.03703703703703704,35.51851851851852,0)" xlink:href="#aU"/><use transform="matrix(0.03703703703703704,0,0,0.03703703703703704,39.925925925925924,0)" xlink:href="#bp"/><use transform="matrix(0.03703703703703704,0,0,0.03703703703703704,48.03703703703704,0)" xlink:href="#bq"/><use transform="matrix(0.03703703703703704,0,0,0.03703703703703704,50.96296296296296,0)" xlink:href="#aO"/><use transform="matrix(0.03703703703703704,0,0,0.03703703703703704,58.37037037037037,0)" xlink:href="#br"/><use transform="matrix(0.03703703703703704,0,0,0.03703703703703704,67.96296296296296,0)" xlink:href="#aY"/></g><path d="M30 0v-248h187v28H63v79h144v27H63v87h162V0H30" id="bs"/><path d="M141 0L90-78 38 0H4l68-98-65-92h35l48 74 47-74h35l-64 92 68 98h-35" id="bt"/><g id="q"><use transform="matrix(0.03703703703703704,0,0,0.03703703703703704,0,0)" xlink:href="#bs"/><use transform="matrix(0.03703703703703704,0,0,0.03703703703703704,8.88888888888889,0)" xlink:href="#bt"/><use transform="matrix(0.03703703703703704,0,0,0.03703703703703704,15.555555555555557,0)" xlink:href="#aK"/><use transform="matrix(0.03703703703703704,0,0,0.03703703703703704,19.259259259259256,0)" xlink:href="#ba"/><use transform="matrix(0.03703703703703704,0,0,0.03703703703703704,23.66666666666667,0)" xlink:href="#aH"/><use transform="matrix(0.03703703703703704,0,0,0.03703703703703704,31.07407407407408,0)" xlink:href="#aJ"/><use transform="matrix(0.03703703703703704,0,0,0.03703703703703704,37.74074074074075,0)" xlink:href="#aK"/><use transform="matrix(0.03703703703703704,0,0,0.03703703703703704,41.44444444444445,0)" xlink:href="#bd"/></g><path d="M179-190L93 31C79 59 56 82 12 73V49c39 6 53-20 64-50L1-190h34L92-34l54-156h33" id="bu"/><g id="r"><use transform="matrix(0.03703703703703704,0,0,0.03703703703703704,0,0)" xlink:href="#bd"/><use transform="matrix(0.03703703703703704,0,0,0.03703703703703704,6.666666666666668,0)" xlink:href="#aI"/><use transform="matrix(0.03703703703703704,0,0,0.03703703703703704,14.074074074074076,0)" xlink:href="#aH"/><use transform="matrix(0.03703703703703704,0,0,0.03703703703703704,21.481481481481485,0)" xlink:href="#aK"/><use transform="matrix(0.03703703703703704,0,0,0.03703703703703704,25.185185185185187,0)" xlink:href="#aE"/><use transform="matrix(0.03703703703703704,0,0,0.03703703703703704,28.111111111111118,0)" xlink:href="#aH"/><use transform="matrix(0.03703703703703704,0,0,0.03703703703703704,35.518518518518526,0)" xlink:href="#aF"/><use transform="matrix(0.03703703703703704,0,0,0.03703703703703704,38.44444444444445,0)" xlink:href="#aF"/><use transform="matrix(0.03703703703703704,0,0,0.03703703703703704,41.370370370370374,0)" xlink:href="#bu"/></g><g id="s"><use transform="matrix(0.03703703703703704,0,0,0.03703703703703704,0,0)" xlink:href="#bb"/><use transform="matrix(0.03703703703703704,0,0,0.03703703703703704,6.666666666666668,0)" xlink:href="#aH"/><use transform="matrix(0.03703703703703704,0,0,0.03703703703703704,14.074074074074076,0)" xlink:href="#ba"/><use transform="matrix(0.03703703703703704,0,0,0.03703703703703704,18.481481481481485,0)" xlink:href="#bu"/><use transform="matrix(0.03703703703703704,0,0,0.03703703703703704,25.148148148148152,0)" xlink:href="#aE"/><use transform="matrix(0.03703703703703704,0,0,0.03703703703703704,28.074074074074076,0)" xlink:href="#aL"/><use transform="matrix(0.03703703703703704,0,0,0.03703703703703704,35.48148148148149,0)" xlink:href="#bh"/></g><path d="M160-131c35 5 61 23 61 61C221 17 115-2 30 0v-248c76 3 177-17 177 60 0 33-19 50-47 57zm-97-11c50-1 110 9 110-42 0-47-63-36-110-37v79zm0 115c55-2 124 14 124-45 0-56-70-42-124-44v89" id="bv"/><path d="M233-177c-1 41-23 64-60 70L243 0h-38l-65-103H63V0H30v-248c88 3 205-21 203 71zM63-129c60-2 137 13 137-47 0-61-80-42-137-45v92" id="bw"/><path d="M30-248c118-7 216 8 213 122C240-48 200 0 122 0H30v-248zM63-27c89 8 146-16 146-99s-60-101-146-95v194" id="bx"/><path d="M63-220v92h138v28H63V0H30v-248h175v28H63" id="by"/><path d="M16-82v-28h88v28H16" id="bz"/><path d="M212-179c-10-28-35-45-73-45-59 0-87 40-87 99 0 60 29 101 89 101 43 0 62-24 78-52l27 14C228-24 195 4 139 4 59 4 22-46 18-125c-6-104 99-153 187-111 19 9 31 26 39 46" id="bA"/><path d="M143 0L79-87 56-68V0H24v-261h32v163l83-92h37l-77 82L181 0h-38" id="bB"/><path d="M127-220V0H93v-220H8v-28h204v28h-85" id="bC"/><g id="t"><use transform="matrix(0.03703703703703704,0,0,0.03703703703703704,0,0)" xlink:href="#bv"/><use transform="matrix(0.03703703703703704,0,0,0.03703703703703704,8.88888888888889,0)" xlink:href="#bw"/><use transform="matrix(0.03703703703703704,0,0,0.03703703703703704,18.48148148148148,0)" xlink:href="#bx"/><use transform="matrix(0.03703703703703704,0,0,0.03703703703703704,28.074074074074076,0)" xlink:href="#by"/><use transform="matrix(0.03703703703703704,0,0,0.03703703703703704,36.18518518518519,0)" xlink:href="#bz"/><use transform="matrix(0.03703703703703704,0,0,0.03703703703703704,40.592592592592595,0)" xlink:href="#bA"/><use transform="matrix(0.03703703703703704,0,0,0.03703703703703704,50.18518518518519,0)" xlink:href="#aC"/><use transform="matrix(0.03703703703703704,0,0,0.03703703703703704,57.592592592592595,0)" xlink:href="#aC"/><use transform="matrix(0.03703703703703704,0,0,0.03703703703703704,65,0)" xlink:href="#bB"/><use transform="matrix(0.03703703703703704,0,0,0.03703703703703704,71.66666666666667,0)" xlink:href="#bz"/><use transform="matrix(0.03703703703703704,0,0,0.03703703703703704,76.07407407407409,0)" xlink:href="#bC"/><use transform="matrix(0.03703703703703704,0,0,0.03703703703703704,82.70370370370371,0)" xlink:href="#aC"/><use transform="matrix(0.03703703703703704,0,0,0.03703703703703704,90.1111111111111,0)" xlink:href="#ba"/><use transform="matrix(0.03703703703703704,0,0,0.03703703703703704,94.51851851851852,0)" xlink:href="#ba"/><use transform="matrix(0.03703703703703704,0,0,0.03703703703703704,98.92592592592592,0)" xlink:href="#aH"/><use transform="matrix(0.03703703703703704,0,0,0.03703703703703704,106.33333333333333,0)" xlink:href="#aL"/><use transform="matrix(0.03703703703703704,0,0,0.03703703703703704,113.74074074074073,0)" xlink:href="#aJ"/><use transform="matrix(0.03703703703703704,0,0,0.03703703703703704,120.4074074074074,0)" xlink:href="#aG"/></g><path d="M206 0h-36l-40-164L89 0H53L-1-190h32L70-26l43-164h34l41 164 42-164h31" id="bD"/><g id="u"><use transform="matrix(0.03703703703703704,0,0,0.03703703703703704,0,0)" xlink:href="#bD"/><use transform="matrix(0.03703703703703704,0,0,0.03703703703703704,9.592592592592593,0)" xlink:href="#aE"/><use transform="matrix(0.03703703703703704,0,0,0.03703703703703704,12.518518518518517,0)" xlink:href="#aK"/><use transform="matrix(0.03703703703703704,0,0,0.03703703703703704,16.22222222222222,0)" xlink:href="#bg"/></g><path d="M210-169c-67 3-38 105-44 169h-31v-121c0-29-5-50-35-48C34-165 62-65 56 0H25l-1-190h30c1 10-1 24 2 32 10-44 99-50 107 0 11-21 27-35 58-36 85-2 47 119 55 194h-31v-121c0-29-5-49-35-48" id="bE"/><g id="v"><use transform="matrix(0.03703703703703704,0,0,0.03703703703703704,0,0)" xlink:href="#aL"/><use transform="matrix(0.03703703703703704,0,0,0.03703703703703704,7.407407407407408,0)" xlink:href="#aC"/><use transform="matrix(0.03703703703703704,0,0,0.03703703703703704,14.814814814814817,0)" xlink:href="#ba"/><use transform="matrix(0.03703703703703704,0,0,0.03703703703703704,19.222222222222225,0)" xlink:href="#bE"/><use transform="matrix(0.03703703703703704,0,0,0.03703703703703704,30.2962962962963,0)" xlink:href="#aH"/><use transform="matrix(0.03703703703703704,0,0,0.03703703703703704,37.70370370370371,0)" xlink:href="#aF"/><use transform="matrix(0.03703703703703704,0,0,0.03703703703703704,40.62962962962963,0)" xlink:href="#bd"/><use transform="matrix(0.03703703703703704,0,0,0.03703703703703704,47.296296296296305,0)" xlink:href="#bi"/></g><g id="w"><use transform="matrix(0.03703703703703704,0,0,0.03703703703703704,0,0)" xlink:href="#bc"/><use transform="matrix(0.03703703703703704,0,0,0.03703703703703704,7.407407407407408,0)" xlink:href="#aE"/><use transform="matrix(0.03703703703703704,0,0,0.03703703703703704,10.333333333333334,0)" xlink:href="#bf"/><use transform="matrix(0.03703703703703704,0,0,0.03703703703703704,13.77777777777778,0)" xlink:href="#bf"/><use transform="matrix(0.03703703703703704,0,0,0.03703703703703704,17.481481481481485,0)" xlink:href="#be"/><use transform="matrix(0.03703703703703704,0,0,0.03703703703703704,24.888888888888893,0)" xlink:href="#bd"/><use transform="matrix(0.03703703703703704,0,0,0.03703703703703704,31.55555555555556,0)" xlink:href="#aG"/><use transform="matrix(0.03703703703703704,0,0,0.03703703703703704,38.96296296296297,0)" xlink:href="#bi"/></g><g id="x"><use transform="matrix(0.03703703703703704,0,0,0.03703703703703704,0,0)" xlink:href="#ba"/><use transform="matrix(0.03703703703703704,0,0,0.03703703703703704,4.407407407407408,0)" xlink:href="#aC"/><use transform="matrix(0.03703703703703704,0,0,0.03703703703703704,11.814814814814817,0)" xlink:href="#be"/><use transform="matrix(0.03703703703703704,0,0,0.03703703703703704,19.222222222222225,0)" xlink:href="#bh"/><use transform="matrix(0.03703703703703704,0,0,0.03703703703703704,26.629629629629633,0)" xlink:href="#bg"/><use transform="matrix(0.03703703703703704,0,0,0.03703703703703704,34.03703703703704,0)" xlink:href="#aL"/><use transform="matrix(0.03703703703703704,0,0,0.03703703703703704,41.44444444444444,0)" xlink:href="#aG"/><use transform="matrix(0.03703703703703704,0,0,0.03703703703703704,48.85185185185185,0)" xlink:href="#bd"/><use transform="matrix(0.03703703703703704,0,0,0.03703703703703704,55.51851851851852,0)" xlink:href="#bd"/></g><g id="y"><use transform="matrix(0.03703703703703704,0,0,0.03703703703703704,0,0)" xlink:href="#bd"/><use transform="matrix(0.03703703703703704,0,0,0.03703703703703704,6.666666666666668,0)" xlink:href="#aI"/><use transform="matrix(0.03703703703703704,0,0,0.03703703703703704,14.074074074074076,0)" xlink:href="#aG"/><use transform="matrix(0.03703703703703704,0,0,0.03703703703703704,21.481481481481485,0)" xlink:href="#aJ"/><use transform="matrix(0.03703703703703704,0,0,0.03703703703703704,28.148148148148152,0)" xlink:href="#be"/><use transform="matrix(0.03703703703703704,0,0,0.03703703703703704,35.55555555555556,0)" xlink:href="#aF"/><use transform="matrix(0.03703703703703704,0,0,0.03703703703703704,38.48148148148148,0)" xlink:href="#aH"/><use transform="matrix(0.03703703703703704,0,0,0.03703703703703704,45.888888888888886,0)" xlink:href="#ba"/></g><g id="z"><use transform="matrix(0.03703703703703704,0,0,0.03703703703703704,0,0)" xlink:href="#bE"/><use transform="matrix(0.03703703703703704,0,0,0.03703703703703704,11.074074074074076,0)" xlink:href="#aH"/><use transform="matrix(0.03703703703703704,0,0,0.03703703703703704,18.481481481481485,0)" xlink:href="#aI"/><use transform="matrix(0.03703703703703704,0,0,0.03703703703703704,25.888888888888893,0)" xlink:href="#bd"/></g><g id="A"><use transform="matrix(0.03703703703703704,0,0,0.03703703703703704,0,0)" xlink:href="#bf"/><use transform="matrix(0.03703703703703704,0,0,0.03703703703703704,3.703703703703704,0)" xlink:href="#ba"/><use transform="matrix(0.03703703703703704,0,0,0.03703703703703704,8.111111111111112,0)" xlink:href="#aC"/><use transform="matrix(0.03703703703703704,0,0,0.03703703703703704,15.51851851851852,0)" xlink:href="#bE"/></g><g id="B"><use transform="matrix(0.03703703703703704,0,0,0.03703703703703704,0,0)" xlink:href="#aI"/><use transform="matrix(0.03703703703703704,0,0,0.03703703703703704,7.407407407407408,0)" xlink:href="#aE"/><use transform="matrix(0.03703703703703704,0,0,0.03703703703703704,10.333333333333334,0)" xlink:href="#aJ"/><use transform="matrix(0.03703703703703704,0,0,0.03703703703703704,17.000000000000004,0)" xlink:href="#aK"/><use transform="matrix(0.03703703703703704,0,0,0.03703703703703704,20.70370370370371,0)" xlink:href="#be"/><use transform="matrix(0.03703703703703704,0,0,0.03703703703703704,28.111111111111118,0)" xlink:href="#ba"/><use transform="matrix(0.03703703703703704,0,0,0.03703703703703704,32.518518518518526,0)" xlink:href="#aG"/><use transform="matrix(0.03703703703703704,0,0,0.03703703703703704,39.92592592592594,0)" xlink:href="#bd"/></g><g id="C"><use transform="matrix(0.03703703703703704,0,0,0.03703703703703704,0,0)" xlink:href="#bd"/><use transform="matrix(0.03703703703703704,0,0,0.03703703703703704,6.666666666666668,0)" xlink:href="#aG"/><use transform="matrix(0.03703703703703704,0,0,0.03703703703703704,14.074074074074076,0)" xlink:href="#aK"/></g><g id="D"><use transform="matrix(0.03703703703703704,0,0,0.03703703703703704,0,0)" xlink:href="#aF"/><use transform="matrix(0.03703703703703704,0,0,0.03703703703703704,2.9259259259259265,0)" xlink:href="#aG"/><use transform="matrix(0.03703703703703704,0,0,0.03703703703703704,10.333333333333334,0)" xlink:href="#bb"/><use transform="matrix(0.03703703703703704,0,0,0.03703703703703704,17.000000000000004,0)" xlink:href="#aG"/><use transform="matrix(0.03703703703703704,0,0,0.03703703703703704,24.407407407407412,0)" xlink:href="#ba"/><use transform="matrix(0.03703703703703704,0,0,0.03703703703703704,28.81481481481482,0)" xlink:href="#aH"/><use transform="matrix(0.03703703703703704,0,0,0.03703703703703704,36.22222222222223,0)" xlink:href="#ba"/><use transform="matrix(0.03703703703703704,0,0,0.03703703703703704,40.62962962962963,0)" xlink:href="#aE"/><use transform="matrix(0.03703703703703704,0,0,0.03703703703703704,43.555555555555564,0)" xlink:href="#aL"/><use transform="matrix(0.03703703703703704,0,0,0.03703703703703704,50.96296296296296,0)" xlink:href="#bh"/></g><g id="E"><use transform="matrix(0.03703703703703704,0,0,0.03703703703703704,0,0)" xlink:href="#bc"/><use transform="matrix(0.03703703703703704,0,0,0.03703703703703704,7.407407407407408,0)" xlink:href="#aG"/><use transform="matrix(0.03703703703703704,0,0,0.03703703703703704,14.814814814814817,0)" xlink:href="#aG"/><use transform="matrix(0.03703703703703704,0,0,0.03703703703703704,22.222222222222225,0)" xlink:href="#aI"/></g><g id="F"><use transform="matrix(0.03703703703703704,0,0,0.03703703703703704,0,0)" xlink:href="#aL"/><use transform="matrix(0.03703703703703704,0,0,0.03703703703703704,7.407407407407408,0)" xlink:href="#aG"/><use transform="matrix(0.03703703703703704,0,0,0.03703703703703704,14.814814814814817,0)" xlink:href="#be"/><use transform="matrix(0.03703703703703704,0,0,0.03703703703703704,22.222222222222225,0)" xlink:href="#ba"/><use transform="matrix(0.03703703703703704,0,0,0.03703703703703704,26.629629629629633,0)" xlink:href="#aH"/><use transform="matrix(0.03703703703703704,0,0,0.03703703703703704,34.03703703703704,0)" xlink:href="#aF"/></g><g id="G"><use transform="matrix(0.03703703703703704,0,0,0.03703703703703704,0,0)" xlink:href="#aL"/><use transform="matrix(0.03703703703703704,0,0,0.03703703703703704,7.407407407407408,0)" xlink:href="#aG"/><use transform="matrix(0.03703703703703704,0,0,0.03703703703703704,14.814814814814817,0)" xlink:href="#aK"/><use transform="matrix(0.03703703703703704,0,0,0.03703703703703704,18.51851851851852,0)" xlink:href="#bD"/><use transform="matrix(0.03703703703703704,0,0,0.03703703703703704,28.111111111111114,0)" xlink:href="#aC"/><use transform="matrix(0.03703703703703704,0,0,0.03703703703703704,35.51851851851852,0)" xlink:href="#ba"/><use transform="matrix(0.03703703703703704,0,0,0.03703703703703704,39.925925925925924,0)" xlink:href="#bB"/><use transform="matrix(0.03703703703703704,0,0,0.03703703703703704,46.592592592592595,0)" xlink:href="#bk"/></g><g id="H"><use transform="matrix(0.05,0,0,0.05,0,0)" xlink:href="#aB"/><use transform="matrix(0.05,0,0,0.05,14.950000000000001,0)" xlink:href="#aH"/><use transform="matrix(0.05,0,0,0.05,24.950000000000003,0)" xlink:href="#aK"/><use transform="matrix(0.05,0,0,0.05,29.950000000000003,0)" xlink:href="#aG"/><use transform="matrix(0.05,0,0,0.05,39.95,0)" xlink:href="#ba"/><use transform="matrix(0.05,0,0,0.05,45.900000000000006,0)" xlink:href="#aE"/><use transform="matrix(0.05,0,0,0.05,49.85000000000001,0)" xlink:href="#aH"/><use transform="matrix(0.05,0,0,0.05,59.85,0)" xlink:href="#aF"/></g><g id="I"><use transform="matrix(0.05,0,0,0.05,0,0)" xlink:href="#bd"/><use transform="matrix(0.05,0,0,0.05,9,0)" xlink:href="#aJ"/><use transform="matrix(0.05,0,0,0.05,18,0)" xlink:href="#aE"/><use transform="matrix(0.05,0,0,0.05,21.95,0)" xlink:href="#aG"/><use transform="matrix(0.05,0,0,0.05,31.950000000000003,0)" xlink:href="#aL"/><use transform="matrix(0.05,0,0,0.05,41.95,0)" xlink:href="#aK"/><use transform="matrix(0.05,0,0,0.05,46.95,0)" xlink:href="#aE"/><use transform="matrix(0.05,0,0,0.05,50.900000000000006,0)" xlink:href="#bd"/><use transform="matrix(0.05,0,0,0.05,59.900000000000006,0)" xlink:href="#aK"/></g><path fill="#fff" d="M30-248c87 1 191-15 191 75 0 78-77 80-158 76V0H30v-248zm33 125c57 0 124 11 124-50 0-59-68-47-124-48v98" id="bF"/><g id="J"><use transform="matrix(0.03703703703703704,0,0,0.03703703703703704,0,0)" xlink:href="#aM"/><use transform="matrix(0.03703703703703704,0,0,0.03703703703703704,3.703703703703704,0)" xlink:href="#bF"/><use transform="matrix(0.03703703703703704,0,0,0.03703703703703704,12.592592592592593,0)" xlink:href="#aT"/><use transform="matrix(0.03703703703703704,0,0,0.03703703703703704,20,0)" xlink:href="#aU"/><use transform="matrix(0.03703703703703704,0,0,0.03703703703703704,24.407407407407405,0)" xlink:href="#bo"/><use transform="matrix(0.03703703703703704,0,0,0.03703703703703704,31.07407407407408,0)" xlink:href="#aO"/><use transform="matrix(0.03703703703703704,0,0,0.03703703703703704,38.48148148148148,0)" xlink:href="#aP"/><use transform="matrix(0.03703703703703704,0,0,0.03703703703703704,45.888888888888886,0)" xlink:href="#aY"/></g><path d="M30 0v-248h33v221h125V0H30" id="bG"/><g id="K"><use transform="matrix(0.03703703703703704,0,0,0.03703703703703704,0,0)" xlink:href="#bG"/><use transform="matrix(0.03703703703703704,0,0,0.03703703703703704,7.407407407407408,0)" xlink:href="#aG"/><use transform="matrix(0.03703703703703704,0,0,0.03703703703703704,14.814814814814817,0)" xlink:href="#bb"/><use transform="matrix(0.03703703703703704,0,0,0.03703703703703704,21.481481481481485,0)" xlink:href="#aG"/><use transform="matrix(0.03703703703703704,0,0,0.03703703703703704,28.888888888888893,0)" xlink:href="#ba"/><use transform="matrix(0.03703703703703704,0,0,0.03703703703703704,33.296296296296305,0)" xlink:href="#aH"/><use transform="matrix(0.03703703703703704,0,0,0.03703703703703704,40.70370370370371,0)" xlink:href="#bh"/><use transform="matrix(0.03703703703703704,0,0,0.03703703703703704,48.111111111111114,0)" xlink:href="#aG"/><use transform="matrix(0.03703703703703704,0,0,0.03703703703703704,55.51851851851852,0)" xlink:href="#bd"/></g><g id="L"><use transform="matrix(0.03703703703703704,0,0,0.03703703703703704,0,0)" xlink:href="#bd"/><use transform="matrix(0.03703703703703704,0,0,0.03703703703703704,6.666666666666668,0)" xlink:href="#bE"/><use transform="matrix(0.03703703703703704,0,0,0.03703703703703704,17.740740740740744,0)" xlink:href="#aH"/><use transform="matrix(0.03703703703703704,0,0,0.03703703703703704,25.148148148148152,0)" xlink:href="#ba"/><use transform="matrix(0.03703703703703704,0,0,0.03703703703703704,29.55555555555556,0)" xlink:href="#aK"/><use transform="matrix(0.03703703703703704,0,0,0.03703703703703704,33.25925925925927,0)" xlink:href="#aI"/><use transform="matrix(0.03703703703703704,0,0,0.03703703703703704,40.66666666666667,0)" xlink:href="#bg"/><use transform="matrix(0.03703703703703704,0,0,0.03703703703703704,48.07407407407407,0)" xlink:href="#aC"/><use transform="matrix(0.03703703703703704,0,0,0.03703703703703704,55.48148148148148,0)" xlink:href="#aL"/><use transform="matrix(0.03703703703703704,0,0,0.03703703703703704,62.888888888888886,0)" xlink:href="#aG"/></g><g id="M"><use transform="matrix(0.03703703703703704,0,0,0.03703703703703704,0,0)" xlink:href="#bf"/><use transform="matrix(0.03703703703703704,0,0,0.03703703703703704,3.703703703703704,0)" xlink:href="#aH"/><use transform="matrix(0.03703703703703704,0,0,0.03703703703703704,11.111111111111112,0)" xlink:href="#aJ"/><use transform="matrix(0.03703703703703704,0,0,0.03703703703703704,17.77777777777778,0)" xlink:href="#aE"/><use transform="matrix(0.03703703703703704,0,0,0.03703703703703704,20.703703703703706,0)" xlink:href="#aF"/><use transform="matrix(0.03703703703703704,0,0,0.03703703703703704,23.629629629629633,0)" xlink:href="#aE"/><use transform="matrix(0.03703703703703704,0,0,0.03703703703703704,26.55555555555556,0)" xlink:href="#aK"/><use transform="matrix(0.03703703703703704,0,0,0.03703703703703704,30.259259259259267,0)" xlink:href="#aE"/><use transform="matrix(0.03703703703703704,0,0,0.03703703703703704,33.18518518518519,0)" xlink:href="#aG"/><use transform="matrix(0.03703703703703704,0,0,0.03703703703703704,40.592592592592595,0)" xlink:href="#bd"/></g><g id="N"><use transform="matrix(0.03703703703703704,0,0,0.03703703703703704,0,0)" xlink:href="#aK"/><use transform="matrix(0.03703703703703704,0,0,0.03703703703703704,3.703703703703704,0)" xlink:href="#aC"/></g><g id="O"><use transform="matrix(0.03703703703703704,0,0,0.03703703703703704,0,0)" xlink:href="#aJ"/><use transform="matrix(0.03703703703703704,0,0,0.03703703703703704,6.666666666666668,0)" xlink:href="#aH"/><use transform="matrix(0.03703703703703704,0,0,0.03703703703703704,14.074074074074076,0)" xlink:href="#aI"/><use transform="matrix(0.03703703703703704,0,0,0.03703703703703704,21.481481481481485,0)" xlink:href="#aK"/><use transform="matrix(0.03703703703703704,0,0,0.03703703703703704,25.185185185185187,0)" xlink:href="#be"/><use transform="matrix(0.03703703703703704,0,0,0.03703703703703704,32.592592592592595,0)" xlink:href="#ba"/><use transform="matrix(0.03703703703703704,0,0,0.03703703703703704,37,0)" xlink:href="#aG"/></g><g id="P"><use transform="matrix(0.03703703703703704,0,0,0.03703703703703704,0,0)" xlink:href="#bE"/><use transform="matrix(0.03703703703703704,0,0,0.03703703703703704,11.074074074074076,0)" xlink:href="#aH"/><use transform="matrix(0.03703703703703704,0,0,0.03703703703703704,18.481481481481485,0)" xlink:href="#aK"/><use transform="matrix(0.03703703703703704,0,0,0.03703703703703704,22.185185185185194,0)" xlink:href="#aG"/><use transform="matrix(0.03703703703703704,0,0,0.03703703703703704,29.592592592592602,0)" xlink:href="#ba"/><use transform="matrix(0.03703703703703704,0,0,0.03703703703703704,34.00000000000001,0)" xlink:href="#aE"/><use transform="matrix(0.03703703703703704,0,0,0.03703703703703704,36.92592592592593,0)" xlink:href="#aH"/><use transform="matrix(0.03703703703703704,0,0,0.03703703703703704,44.333333333333336,0)" xlink:href="#aF"/><use transform="matrix(0.03703703703703704,0,0,0.03703703703703704,47.25925925925927,0)" xlink:href="#bd"/></g><g id="Q"><use transform="matrix(0.03703703703703704,0,0,0.03703703703703704,0,0)" xlink:href="#aI"/><use transform="matrix(0.03703703703703704,0,0,0.03703703703703704,7.407407407407408,0)" xlink:href="#ba"/><use transform="matrix(0.03703703703703704,0,0,0.03703703703703704,11.814814814814817,0)" xlink:href="#aC"/><use transform="matrix(0.03703703703703704,0,0,0.03703703703703704,19.222222222222225,0)" xlink:href="#aI"/><use transform="matrix(0.03703703703703704,0,0,0.03703703703703704,26.629629629629633,0)" xlink:href="#aG"/><use transform="matrix(0.03703703703703704,0,0,0.03703703703703704,34.03703703703704,0)" xlink:href="#ba"/><use transform="matrix(0.03703703703703704,0,0,0.03703703703703704,38.44444444444444,0)" xlink:href="#aK"/><use transform="matrix(0.03703703703703704,0,0,0.03703703703703704,42.148148148148145,0)" xlink:href="#aE"/><use transform="matrix(0.03703703703703704,0,0,0.03703703703703704,45.07407407407407,0)" xlink:href="#aG"/><use transform="matrix(0.03703703703703704,0,0,0.03703703703703704,52.48148148148148,0)" xlink:href="#bd"/><use transform="matrix(0.03703703703703704,0,0,0.03703703703703704,59.14814814814816,0)" xlink:href="#bk"/></g><path d="M232-93c-1 65-40 97-104 97C67 4 28-28 28-90v-158h33c8 89-33 224 67 224 102 0 64-133 71-224h33v155" id="bH"/><g id="R"><use transform="matrix(0.05,0,0,0.05,0,0)" xlink:href="#bH"/><use transform="matrix(0.05,0,0,0.05,12.950000000000001,0)" xlink:href="#bd"/><use transform="matrix(0.05,0,0,0.05,21.950000000000003,0)" xlink:href="#aG"/><use transform="matrix(0.05,0,0,0.05,31.950000000000003,0)" xlink:href="#bd"/></g><g id="S"><use transform="matrix(0.05,0,0,0.05,0,0)" xlink:href="#bm"/><use transform="matrix(0.05,0,0,0.05,5,0)" xlink:href="#aJ"/><use transform="matrix(0.05,0,0,0.05,14,0)" xlink:href="#aH"/><use transform="matrix(0.05,0,0,0.05,24,0)" xlink:href="#ba"/><use transform="matrix(0.05,0,0,0.05,29.950000000000003,0)" xlink:href="#be"/><use transform="matrix(0.05,0,0,0.05,39.95,0)" xlink:href="#bd"/></g><path fill="#fff" d="M185-189c-5-48-123-54-124 2 14 75 158 14 163 119 3 78-121 87-175 55-17-10-28-26-33-46l33-7c5 56 141 63 141-1 0-78-155-14-162-118-5-82 145-84 179-34 5 7 8 16 11 25" id="bI"/><path fill="#fff" d="M101-234c-31-9-42 10-38 44h38v23H63V0H32v-167H5v-23h27c-7-52 17-82 69-68v24" id="bJ"/><g id="T"><use transform="matrix(0.03703703703703704,0,0,0.03703703703703704,0,0)" xlink:href="#aM"/><use transform="matrix(0.03703703703703704,0,0,0.03703703703703704,3.703703703703704,0)" xlink:href="#bI"/><use transform="matrix(0.03703703703703704,0,0,0.03703703703703704,12.592592592592593,0)" xlink:href="#aO"/><use transform="matrix(0.03703703703703704,0,0,0.03703703703703704,20,0)" xlink:href="#bJ"/><use transform="matrix(0.03703703703703704,0,0,0.03703703703703704,23.703703703703702,0)" xlink:href="#aQ"/><use transform="matrix(0.03703703703703704,0,0,0.03703703703703704,27.40740740740741,0)" xlink:href="#br"/><use transform="matrix(0.03703703703703704,0,0,0.03703703703703704,37,0)" xlink:href="#aR"/><use transform="matrix(0.03703703703703704,0,0,0.03703703703703704,44.407407407407405,0)" xlink:href="#aU"/><use transform="matrix(0.03703703703703704,0,0,0.03703703703703704,48.81481481481481,0)" xlink:href="#aT"/></g><path fill="#fff" d="M179-190L93 31C79 59 56 82 12 73V49c39 6 53-20 64-50L1-190h34L92-34l54-156h33" id="bK"/><g id="U"><use transform="matrix(0.03703703703703704,0,0,0.03703703703703704,0,0)" xlink:href="#bI"/><use transform="matrix(0.03703703703703704,0,0,0.03703703703703704,8.88888888888889,0)" xlink:href="#bK"/><use transform="matrix(0.03703703703703704,0,0,0.03703703703703704,15.555555555555557,0)" xlink:href="#bo"/><use transform="matrix(0.03703703703703704,0,0,0.03703703703703704,22.222222222222225,0)" xlink:href="#aQ"/><use transform="matrix(0.03703703703703704,0,0,0.03703703703703704,25.92592592592593,0)" xlink:href="#aT"/><use transform="matrix(0.03703703703703704,0,0,0.03703703703703704,33.33333333333334,0)" xlink:href="#aX"/><use transform="matrix(0.03703703703703704,0,0,0.03703703703703704,44.40740740740742,0)" xlink:href="#aY"/></g><g id="V"><use transform="matrix(0.03703703703703704,0,0,0.03703703703703704,0,0)" xlink:href="#aI"/><use transform="matrix(0.03703703703703704,0,0,0.03703703703703704,7.407407407407408,0)" xlink:href="#aC"/><use transform="matrix(0.03703703703703704,0,0,0.03703703703703704,14.814814814814817,0)" xlink:href="#bD"/><use transform="matrix(0.03703703703703704,0,0,0.03703703703703704,24.407407407407412,0)" xlink:href="#aG"/><use transform="matrix(0.03703703703703704,0,0,0.03703703703703704,31.81481481481482,0)" xlink:href="#ba"/><use transform="matrix(0.03703703703703704,0,0,0.03703703703703704,36.22222222222223,0)" xlink:href="#bf"/><use transform="matrix(0.03703703703703704,0,0,0.03703703703703704,39.92592592592593,0)" xlink:href="#be"/><use transform="matrix(0.03703703703703704,0,0,0.03703703703703704,47.33333333333334,0)" xlink:href="#aF"/></g><g id="W"><use transform="matrix(0.03703703703703704,0,0,0.03703703703703704,0,0)" xlink:href="#bf"/><use transform="matrix(0.03703703703703704,0,0,0.03703703703703704,3.703703703703704,0)" xlink:href="#aH"/><use transform="matrix(0.03703703703703704,0,0,0.03703703703703704,11.111111111111112,0)" xlink:href="#aJ"/><use transform="matrix(0.03703703703703704,0,0,0.03703703703703704,17.77777777777778,0)" xlink:href="#aE"/><use transform="matrix(0.03703703703703704,0,0,0.03703703703703704,20.703703703703706,0)" xlink:href="#aF"/><use transform="matrix(0.03703703703703704,0,0,0.03703703703703704,23.629629629629633,0)" xlink:href="#aE"/><use transform="matrix(0.03703703703703704,0,0,0.03703703703703704,26.55555555555556,0)" xlink:href="#aK"/><use transform="matrix(0.03703703703703704,0,0,0.03703703703703704,30.259259259259267,0)" xlink:href="#aE"/><use transform="matrix(0.03703703703703704,0,0,0.03703703703703704,33.18518518518519,0)" xlink:href="#aG"/><use transform="matrix(0.03703703703703704,0,0,0.03703703703703704,40.592592592592595,0)" xlink:href="#bd"/></g><g id="X"><use transform="matrix(0.03703703703703704,0,0,0.03703703703703704,0,0)" xlink:href="#bD"/><use transform="matrix(0.03703703703703704,0,0,0.03703703703703704,9.592592592592593,0)" xlink:href="#aC"/><use transform="matrix(0.03703703703703704,0,0,0.03703703703703704,17,0)" xlink:href="#ba"/><use transform="matrix(0.03703703703703704,0,0,0.03703703703703704,21.407407407407412,0)" xlink:href="#bB"/></g><g id="Y"><use transform="matrix(0.03703703703703704,0,0,0.03703703703703704,0,0)" xlink:href="#bD"/><use transform="matrix(0.03703703703703704,0,0,0.03703703703703704,9.592592592592593,0)" xlink:href="#aE"/><use transform="matrix(0.03703703703703704,0,0,0.03703703703703704,12.518518518518517,0)" xlink:href="#aK"/><use transform="matrix(0.03703703703703704,0,0,0.03703703703703704,16.22222222222222,0)" xlink:href="#bg"/></g><g id="Z"><use transform="matrix(0.03703703703703704,0,0,0.03703703703703704,0,0)" xlink:href="#aI"/><use transform="matrix(0.03703703703703704,0,0,0.03703703703703704,7.407407407407408,0)" xlink:href="#bg"/><use transform="matrix(0.03703703703703704,0,0,0.03703703703703704,14.814814814814817,0)" xlink:href="#bu"/><use transform="matrix(0.03703703703703704,0,0,0.03703703703703704,21.481481481481485,0)" xlink:href="#bd"/><use transform="matrix(0.03703703703703704,0,0,0.03703703703703704,28.148148148148152,0)" xlink:href="#aE"/><use transform="matrix(0.03703703703703704,0,0,0.03703703703703704,31.07407407407408,0)" xlink:href="#aJ"/><use transform="matrix(0.03703703703703704,0,0,0.03703703703703704,37.74074074074075,0)" xlink:href="#bd"/></g><g id="aa"><use transform="matrix(0.03703703703703704,0,0,0.03703703703703704,0,0)" xlink:href="#bE"/><use transform="matrix(0.03703703703703704,0,0,0.03703703703703704,11.074074074074076,0)" xlink:href="#aH"/><use transform="matrix(0.03703703703703704,0,0,0.03703703703703704,18.481481481481485,0)" xlink:href="#aK"/><use transform="matrix(0.03703703703703704,0,0,0.03703703703703704,22.185185185185194,0)" xlink:href="#aG"/><use transform="matrix(0.03703703703703704,0,0,0.03703703703703704,29.592592592592602,0)" xlink:href="#ba"/><use transform="matrix(0.03703703703703704,0,0,0.03703703703703704,34.00000000000001,0)" xlink:href="#aE"/><use transform="matrix(0.03703703703703704,0,0,0.03703703703703704,36.92592592592593,0)" xlink:href="#aH"/><use transform="matrix(0.03703703703703704,0,0,0.03703703703703704,44.333333333333336,0)" xlink:href="#aF"/><use transform="matrix(0.03703703703703704,0,0,0.03703703703703704,47.25925925925927,0)" xlink:href="#bd"/><use transform="matrix(0.03703703703703704,0,0,0.03703703703703704,53.92592592592594,0)" xlink:href="#bk"/></g><g id="ab"><use transform="matrix(0.05,0,0,0.05,0,0)" xlink:href="#by"/><use transform="matrix(0.05,0,0,0.05,10.950000000000001,0)" xlink:href="#aG"/><use transform="matrix(0.05,0,0,0.05,20.950000000000003,0)" xlink:href="#aK"/><use transform="matrix(0.05,0,0,0.05,25.950000000000003,0)" xlink:href="#aJ"/><use transform="matrix(0.05,0,0,0.05,34.95,0)" xlink:href="#bg"/><use transform="matrix(0.05,0,0,0.05,44.95,0)" xlink:href="#aG"/><use transform="matrix(0.05,0,0,0.05,54.95,0)" xlink:href="#bd"/></g><g id="ac"><use transform="matrix(0.05,0,0,0.05,0,0)" xlink:href="#bE"/><use transform="matrix(0.05,0,0,0.05,14.950000000000001,0)" xlink:href="#aH"/><use transform="matrix(0.05,0,0,0.05,24.950000000000003,0)" xlink:href="#aK"/><use transform="matrix(0.05,0,0,0.05,29.950000000000003,0)" xlink:href="#aG"/><use transform="matrix(0.05,0,0,0.05,39.95,0)" xlink:href="#ba"/><use transform="matrix(0.05,0,0,0.05,45.900000000000006,0)" xlink:href="#aE"/><use transform="matrix(0.05,0,0,0.05,49.85000000000001,0)" xlink:href="#aH"/><use transform="matrix(0.05,0,0,0.05,59.85,0)" xlink:href="#aF"/><use transform="matrix(0.05,0,0,0.05,63.80000000000001,0)" xlink:href="#bd"/></g><g id="ad"><use transform="matrix(0.05,0,0,0.05,0,0)" xlink:href="#bf"/><use transform="matrix(0.05,0,0,0.05,5,0)" xlink:href="#ba"/><use transform="matrix(0.05,0,0,0.05,10.95,0)" xlink:href="#aC"/><use transform="matrix(0.05,0,0,0.05,20.95,0)" xlink:href="#bE"/></g><path d="M185-189c-5-48-123-54-124 2 14 75 158 14 163 119 3 78-121 87-175 55-17-10-28-26-33-46l33-7c5 56 141 63 141-1 0-78-155-14-162-118-5-82 145-84 179-34 5 7 8 16 11 25" id="bL"/><g id="ae"><use transform="matrix(0.03703703703703704,0,0,0.03703703703703704,0,0)" xlink:href="#bL"/><use transform="matrix(0.03703703703703704,0,0,0.03703703703703704,8.88888888888889,0)" xlink:href="#aK"/><use transform="matrix(0.03703703703703704,0,0,0.03703703703703704,12.592592592592593,0)" xlink:href="#aC"/><use transform="matrix(0.03703703703703704,0,0,0.03703703703703704,20,0)" xlink:href="#ba"/><use transform="matrix(0.03703703703703704,0,0,0.03703703703703704,24.407407407407405,0)" xlink:href="#aG"/><use transform="matrix(0.03703703703703704,0,0,0.03703703703703704,31.814814814814813,0)" xlink:href="#bd"/></g><g id="af"><use transform="matrix(0.03703703703703704,0,0,0.03703703703703704,0,0)" xlink:href="#aG"/><use transform="matrix(0.03703703703703704,0,0,0.03703703703703704,7.407407407407408,0)" xlink:href="#aL"/><use transform="matrix(0.03703703703703704,0,0,0.03703703703703704,14.814814814814817,0)" xlink:href="#ba"/><use transform="matrix(0.03703703703703704,0,0,0.03703703703703704,19.222222222222225,0)" xlink:href="#aE"/><use transform="matrix(0.03703703703703704,0,0,0.03703703703703704,22.148148148148152,0)" xlink:href="#aJ"/><use transform="matrix(0.03703703703703704,0,0,0.03703703703703704,28.81481481481482,0)" xlink:href="#bg"/><use transform="matrix(0.03703703703703704,0,0,0.03703703703703704,36.22222222222223,0)" xlink:href="#aG"/><use transform="matrix(0.03703703703703704,0,0,0.03703703703703704,43.62962962962963,0)" xlink:href="#bc"/></g><g id="ag"><use transform="matrix(0.03703703703703704,0,0,0.03703703703703704,0,0)" xlink:href="#bd"/><use transform="matrix(0.03703703703703704,0,0,0.03703703703703704,6.666666666666668,0)" xlink:href="#be"/><use transform="matrix(0.03703703703703704,0,0,0.03703703703703704,14.074074074074076,0)" xlink:href="#aI"/><use transform="matrix(0.03703703703703704,0,0,0.03703703703703704,21.481481481481485,0)" xlink:href="#aI"/><use transform="matrix(0.03703703703703704,0,0,0.03703703703703704,28.888888888888893,0)" xlink:href="#aF"/><use transform="matrix(0.03703703703703704,0,0,0.03703703703703704,31.81481481481482,0)" xlink:href="#aE"/><use transform="matrix(0.03703703703703704,0,0,0.03703703703703704,34.74074074074075,0)" xlink:href="#aG"/><use transform="matrix(0.03703703703703704,0,0,0.03703703703703704,42.14814814814815,0)" xlink:href="#bd"/></g><path d="M145-31C134-9 116 4 85 4 32 4 16-35 15-94c0-59 17-99 70-100 32-1 48 14 60 33 0-11-1-24 2-32h30l-1 268h-32zM93-21c41 0 51-33 51-76s-8-73-50-73c-40 0-46 35-46 75s5 74 45 74" id="bM"/><g id="ah"><use transform="matrix(0.03703703703703704,0,0,0.03703703703703704,0,0)" xlink:href="#bM"/><use transform="matrix(0.03703703703703704,0,0,0.03703703703703704,7.407407407407408,0)" xlink:href="#be"/><use transform="matrix(0.03703703703703704,0,0,0.03703703703703704,14.814814814814817,0)" xlink:href="#aG"/><use transform="matrix(0.03703703703703704,0,0,0.03703703703703704,22.222222222222225,0)" xlink:href="#ba"/><use transform="matrix(0.03703703703703704,0,0,0.03703703703703704,26.629629629629633,0)" xlink:href="#aE"/><use transform="matrix(0.03703703703703704,0,0,0.03703703703703704,29.55555555555556,0)" xlink:href="#aG"/><use transform="matrix(0.03703703703703704,0,0,0.03703703703703704,36.96296296296297,0)" xlink:href="#bd"/></g><g id="ai"><use transform="matrix(0.03703703703703704,0,0,0.03703703703703704,0,0)" xlink:href="#bl"/><use transform="matrix(0.03703703703703704,0,0,0.03703703703703704,8.88888888888889,0)" xlink:href="#aZ"/><use transform="matrix(0.03703703703703704,0,0,0.03703703703703704,17.77777777777778,0)" xlink:href="#bm"/><use transform="matrix(0.03703703703703704,0,0,0.03703703703703704,21.48148148148148,0)" xlink:href="#bk"/></g><g id="aj"><use transform="matrix(0.05,0,0,0.05,0,0)" xlink:href="#aB"/><use transform="matrix(0.05,0,0,0.05,14.950000000000001,0)" xlink:href="#aH"/><use transform="matrix(0.05,0,0,0.05,24.950000000000003,0)" xlink:href="#aK"/><use transform="matrix(0.05,0,0,0.05,29.950000000000003,0)" xlink:href="#aG"/><use transform="matrix(0.05,0,0,0.05,39.95,0)" xlink:href="#ba"/><use transform="matrix(0.05,0,0,0.05,45.900000000000006,0)" xlink:href="#aE"/><use transform="matrix(0.05,0,0,0.05,49.85000000000001,0)" xlink:href="#aH"/><use transform="matrix(0.05,0,0,0.05,59.85,0)" xlink:href="#aF"/><use transform="matrix(0.05,0,0,0.05,63.80000000000001,0)" xlink:href="#bd"/></g><g id="ak"><use transform="matrix(0.05,0,0,0.05,0,0)" xlink:href="#bd"/><use transform="matrix(0.05,0,0,0.05,9,0)" xlink:href="#aK"/><use transform="matrix(0.05,0,0,0.05,14,0)" xlink:href="#aC"/><use transform="matrix(0.05,0,0,0.05,24,0)" xlink:href="#ba"/><use transform="matrix(0.05,0,0,0.05,29.950000000000003,0)" xlink:href="#aG"/></g><path fill="#fff" d="M240 0l2-218c-23 76-54 145-80 218h-23L58-218 59 0H30v-248h44l77 211c21-75 51-140 76-211h43V0h-30" id="bN"/><path fill="#fff" d="M177-190C167-65 218 103 67 71c-23-6-38-20-44-43l32-5c15 47 100 32 89-28v-30C133-14 115 1 83 1 29 1 15-40 15-95c0-56 16-97 71-98 29-1 48 16 59 35 1-10 0-23 2-32h30zM94-22c36 0 50-32 50-73 0-42-14-75-50-75-39 0-46 34-46 75s6 73 46 73" id="bO"/><path fill="#fff" d="M30-248c118-7 216 8 213 122C240-48 200 0 122 0H30v-248zM63-27c89 8 146-16 146-99s-60-101-146-95v194" id="bP"/><path fill="#fff" d="M160-131c35 5 61 23 61 61C221 17 115-2 30 0v-248c76 3 177-17 177 60 0 33-19 50-47 57zm-97-11c50-1 110 9 110-42 0-47-63-36-110-37v79zm0 115c55-2 124 14 124-45 0-56-70-42-124-44v89" id="bQ"/><g id="al"><use transform="matrix(0.03703703703703704,0,0,0.03703703703703704,0,0)" xlink:href="#bN"/><use transform="matrix(0.03703703703703704,0,0,0.03703703703703704,11.074074074074076,0)" xlink:href="#aO"/><use transform="matrix(0.03703703703703704,0,0,0.03703703703703704,18.481481481481485,0)" xlink:href="#aP"/><use transform="matrix(0.03703703703703704,0,0,0.03703703703703704,25.888888888888893,0)" xlink:href="#bO"/><use transform="matrix(0.03703703703703704,0,0,0.03703703703703704,33.296296296296305,0)" xlink:href="#aO"/><use transform="matrix(0.03703703703703704,0,0,0.03703703703703704,40.70370370370371,0)" xlink:href="#bP"/><use transform="matrix(0.03703703703703704,0,0,0.03703703703703704,50.296296296296305,0)" xlink:href="#bQ"/><use transform="matrix(0.03703703703703704,0,0,0.03703703703703704,59.18518518518519,0)" xlink:href="#aY"/></g><g id="am"><use transform="matrix(0.05,0,0,0.05,0,0)" xlink:href="#bL"/><use transform="matrix(0.05,0,0,0.05,12,0)" xlink:href="#aK"/><use transform="matrix(0.05,0,0,0.05,17,0)" xlink:href="#aC"/><use transform="matrix(0.05,0,0,0.05,27,0)" xlink:href="#ba"/><use transform="matrix(0.05,0,0,0.05,32.95,0)" xlink:href="#aG"/><use transform="matrix(0.05,0,0,0.05,42.95,0)" xlink:href="#bd"/></g><g id="an"><use transform="matrix(0.05,0,0,0.05,0,0)" xlink:href="#bE"/><use transform="matrix(0.05,0,0,0.05,14.950000000000001,0)" xlink:href="#aH"/><use transform="matrix(0.05,0,0,0.05,24.950000000000003,0)" xlink:href="#aK"/><use transform="matrix(0.05,0,0,0.05,29.950000000000003,0)" xlink:href="#aG"/><use transform="matrix(0.05,0,0,0.05,39.95,0)" xlink:href="#ba"/><use transform="matrix(0.05,0,0,0.05,45.900000000000006,0)" xlink:href="#aE"/><use transform="matrix(0.05,0,0,0.05,49.85000000000001,0)" xlink:href="#aH"/><use transform="matrix(0.05,0,0,0.05,59.85,0)" xlink:href="#aF"/></g><g id="ao"><use transform="matrix(0.05,0,0,0.05,0,0)" xlink:href="#aK"/><use transform="matrix(0.05,0,0,0.05,5,0)" xlink:href="#aC"/></g><g id="ap"><use transform="matrix(0.05,0,0,0.05,0,0)" xlink:href="#aB"/><use transform="matrix(0.05,0,0,0.05,14.950000000000001,0)" xlink:href="#aH"/><use transform="matrix(0.05,0,0,0.05,24.950000000000003,0)" xlink:href="#bB"/><use transform="matrix(0.05,0,0,0.05,33.95,0)" xlink:href="#aG"/><use transform="matrix(0.05,0,0,0.05,43.95,0)" xlink:href="#bd"/></g><g id="aq"><use transform="matrix(0.05,0,0,0.05,0,0)" xlink:href="#bl"/><use transform="matrix(0.05,0,0,0.05,12,0)" xlink:href="#aZ"/><use transform="matrix(0.05,0,0,0.05,24,0)" xlink:href="#bm"/></g><g id="ar"><use transform="matrix(0.05,0,0,0.05,0,0)" xlink:href="#aJ"/><use transform="matrix(0.05,0,0,0.05,9,0)" xlink:href="#aH"/><use transform="matrix(0.05,0,0,0.05,19,0)" xlink:href="#aF"/><use transform="matrix(0.05,0,0,0.05,22.95,0)" xlink:href="#aF"/></g><path d="M266 0h-40l-56-210L115 0H75L2-248h35L96-30l15-64 43-154h32l59 218 59-218h35" id="bR"/><g id="as"><use transform="matrix(0.05,0,0,0.05,0,0)" xlink:href="#bR"/><use transform="matrix(0.05,0,0,0.05,16.599999999999998,0)" xlink:href="#aG"/><use transform="matrix(0.05,0,0,0.05,26.599999999999994,0)" xlink:href="#aD"/></g><path fill="#fff" d="M266 0h-40l-56-210L115 0H75L2-248h35L96-30l15-64 43-154h32l59 218 59-218h35" id="bS"/><path fill="#fff" d="M115-194c53 0 69 39 70 98 0 66-23 100-70 100C84 3 66-7 56-30L54 0H23l1-261h32v101c10-23 28-34 59-34zm-8 174c40 0 45-34 45-75 0-40-5-75-45-74-42 0-51 32-51 76 0 43 10 73 51 73" id="bT"/><path fill="#fff" d="M108 0H70L1-190h34L89-25l56-165h34" id="bU"/><path fill="#fff" d="M96-169c-40 0-48 33-48 73s9 75 48 75c24 0 41-14 43-38l32 2c-6 37-31 61-74 61-59 0-76-41-82-99-10-93 101-131 147-64 4 7 5 14 7 22l-32 3c-4-21-16-35-41-35" id="bV"/><g id="at"><use transform="matrix(0.03703703703703704,0,0,0.03703703703703704,0,0)" xlink:href="#bS"/><use transform="matrix(0.03703703703703704,0,0,0.03703703703703704,12.296296296296298,0)" xlink:href="#aT"/><use transform="matrix(0.03703703703703704,0,0,0.03703703703703704,19.703703703703706,0)" xlink:href="#bT"/><use transform="matrix(0.03703703703703704,0,0,0.03703703703703704,27.111111111111114,0)" xlink:href="#bI"/><use transform="matrix(0.03703703703703704,0,0,0.03703703703703704,36,0)" xlink:href="#aT"/><use transform="matrix(0.03703703703703704,0,0,0.03703703703703704,43.407407407407405,0)" xlink:href="#aU"/><use transform="matrix(0.03703703703703704,0,0,0.03703703703703704,47.81481481481481,0)" xlink:href="#bU"/><use transform="matrix(0.03703703703703704,0,0,0.03703703703703704,54.48148148148148,0)" xlink:href="#aS"/><use transform="matrix(0.03703703703703704,0,0,0.03703703703703704,57.407407407407405,0)" xlink:href="#bV"/><use transform="matrix(0.03703703703703704,0,0,0.03703703703703704,64.07407407407408,0)" xlink:href="#aT"/><use transform="matrix(0.03703703703703704,0,0,0.03703703703703704,71.48148148148148,0)" xlink:href="#aY"/></g><g id="au"><use transform="matrix(0.03703703703703704,0,0,0.03703703703703704,0,0)" xlink:href="#aF"/><use transform="matrix(0.03703703703703704,0,0,0.03703703703703704,2.9259259259259265,0)" xlink:href="#aE"/><use transform="matrix(0.03703703703703704,0,0,0.03703703703703704,5.851851851851853,0)" xlink:href="#bE"/><use transform="matrix(0.03703703703703704,0,0,0.03703703703703704,16.92592592592593,0)" xlink:href="#aE"/><use transform="matrix(0.03703703703703704,0,0,0.03703703703703704,19.85185185185186,0)" xlink:href="#aK"/><use transform="matrix(0.03703703703703704,0,0,0.03703703703703704,23.555555555555564,0)" xlink:href="#aG"/><use transform="matrix(0.03703703703703704,0,0,0.03703703703703704,30.962962962962973,0)" xlink:href="#bc"/></g><g id="av"><use transform="matrix(0.03703703703703704,0,0,0.03703703703703704,0,0)" xlink:href="#be"/><use transform="matrix(0.03703703703703704,0,0,0.03703703703703704,7.407407407407408,0)" xlink:href="#aI"/><use transform="matrix(0.03703703703703704,0,0,0.03703703703703704,14.814814814814817,0)" xlink:href="#aF"/><use transform="matrix(0.03703703703703704,0,0,0.03703703703703704,17.740740740740744,0)" xlink:href="#aC"/><use transform="matrix(0.03703703703703704,0,0,0.03703703703703704,25.148148148148152,0)" xlink:href="#aH"/><use transform="matrix(0.03703703703703704,0,0,0.03703703703703704,32.55555555555556,0)" xlink:href="#bc"/></g><g id="aw"><use transform="matrix(0.03703703703703704,0,0,0.03703703703703704,0,0)" xlink:href="#aJ"/><use transform="matrix(0.03703703703703704,0,0,0.03703703703703704,6.666666666666668,0)" xlink:href="#aC"/><use transform="matrix(0.03703703703703704,0,0,0.03703703703703704,14.074074074074076,0)" xlink:href="#aL"/><use transform="matrix(0.03703703703703704,0,0,0.03703703703703704,21.481481481481485,0)" xlink:href="#bd"/><use transform="matrix(0.03703703703703704,0,0,0.03703703703703704,28.148148148148152,0)" xlink:href="#aK"/><use transform="matrix(0.03703703703703704,0,0,0.03703703703703704,31.851851851851855,0)" xlink:href="#ba"/><use transform="matrix(0.03703703703703704,0,0,0.03703703703703704,36.25925925925927,0)" xlink:href="#aH"/><use transform="matrix(0.03703703703703704,0,0,0.03703703703703704,43.66666666666667,0)" xlink:href="#aE"/><use transform="matrix(0.03703703703703704,0,0,0.03703703703703704,46.592592592592595,0)" xlink:href="#aL"/><use transform="matrix(0.03703703703703704,0,0,0.03703703703703704,54,0)" xlink:href="#aG"/><use transform="matrix(0.03703703703703704,0,0,0.03703703703703704,61.407407407407405,0)" xlink:href="#bc"/></g><g id="ax"><use transform="matrix(0.03703703703703704,0,0,0.03703703703703704,0,0)" xlink:href="#bd"/><use transform="matrix(0.03703703703703704,0,0,0.03703703703703704,6.666666666666668,0)" xlink:href="#aG"/><use transform="matrix(0.03703703703703704,0,0,0.03703703703703704,14.074074074074076,0)" xlink:href="#aK"/><use transform="matrix(0.03703703703703704,0,0,0.03703703703703704,17.77777777777778,0)" xlink:href="#bk"/></g><g id="ay"><use transform="matrix(0.05,0,0,0.05,0,0)" xlink:href="#aB"/><use transform="matrix(0.05,0,0,0.05,14.950000000000001,0)" xlink:href="#bm"/><use transform="matrix(0.05,0,0,0.05,19.950000000000003,0)" xlink:href="#bG"/><use transform="matrix(0.05,0,0,0.05,29.950000000000003,0)" xlink:href="#bl"/></g><path fill="#999" d="M26 75v-336h71v23H56V52h41v23H26" id="bW"/><path fill="#999" d="M185-189c-5-48-123-54-124 2 14 75 158 14 163 119 3 78-121 87-175 55-17-10-28-26-33-46l33-7c5 56 141 63 141-1 0-78-155-14-162-118-5-82 145-84 179-34 5 7 8 16 11 25" id="bX"/><path fill="#999" d="M100-194c62-1 85 37 85 99 1 63-27 99-86 99S16-35 15-95c0-66 28-99 85-99zM99-20c44 1 53-31 53-75 0-43-8-75-51-75s-53 32-53 75 10 74 51 75" id="bY"/><path fill="#999" d="M101-234c-31-9-42 10-38 44h38v23H63V0H32v-167H5v-23h27c-7-52 17-82 69-68v24" id="bZ"/><path fill="#999" d="M59-47c-2 24 18 29 38 22v24C64 9 27 4 27-40v-127H5v-23h24l9-43h21v43h35v23H59v120" id="ca"/><path fill="#999" d="M206 0h-36l-40-164L89 0H53L-1-190h32L70-26l43-164h34l41 164 42-164h31" id="cb"/><path fill="#999" d="M141-36C126-15 110 5 73 4 37 3 15-17 15-53c-1-64 63-63 125-63 3-35-9-54-41-54-24 1-41 7-42 31l-33-3c5-37 33-52 76-52 45 0 72 20 72 64v82c-1 20 7 32 28 27v20c-31 9-61-2-59-35zM48-53c0 20 12 33 32 33 41-3 63-29 60-74-43 2-92-5-92 41" id="cc"/><path fill="#999" d="M114-163C36-179 61-72 57 0H25l-1-190h30c1 12-1 29 2 39 6-27 23-49 58-41v29" id="cd"/><path fill="#999" d="M100-194c63 0 86 42 84 106H49c0 40 14 67 53 68 26 1 43-12 49-29l28 8c-11 28-37 45-77 45C44 4 14-33 15-96c1-61 26-98 85-98zm52 81c6-60-76-77-97-28-3 7-6 17-6 28h103" id="ce"/><g id="az"><use transform="matrix(0.03703703703703704,0,0,0.03703703703703704,0,0)" xlink:href="#bW"/><use transform="matrix(0.03703703703703704,0,0,0.03703703703703704,3.703703703703704,0)" xlink:href="#bX"/><use transform="matrix(0.03703703703703704,0,0,0.03703703703703704,12.592592592592593,0)" xlink:href="#bY"/><use transform="matrix(0.03703703703703704,0,0,0.03703703703703704,20,0)" xlink:href="#bZ"/><use transform="matrix(0.03703703703703704,0,0,0.03703703703703704,23.703703703703702,0)" xlink:href="#ca"/><use transform="matrix(0.03703703703703704,0,0,0.03703703703703704,27.40740740740741,0)" xlink:href="#cb"/><use transform="matrix(0.03703703703703704,0,0,0.03703703703703704,37,0)" xlink:href="#cc"/><use transform="matrix(0.03703703703703704,0,0,0.03703703703703704,44.407407407407405,0)" xlink:href="#cd"/><use transform="matrix(0.03703703703703704,0,0,0.03703703703703704,48.81481481481481,0)" xlink:href="#ce"/></g><path fill="#999" d="M179-190L93 31C79 59 56 82 12 73V49c39 6 53-20 64-50L1-190h34L92-34l54-156h33" id="cf"/><path fill="#999" d="M135-143c-3-34-86-38-87 0 15 53 115 12 119 90S17 21 10-45l28-5c4 36 97 45 98 0-10-56-113-15-118-90-4-57 82-63 122-42 12 7 21 19 24 35" id="cg"/><path fill="#999" d="M210-169c-67 3-38 105-44 169h-31v-121c0-29-5-50-35-48C34-165 62-65 56 0H25l-1-190h30c1 10-1 24 2 32 10-44 99-50 107 0 11-21 27-35 58-36 85-2 47 119 55 194h-31v-121c0-29-5-49-35-48" id="ch"/><path fill="#999" d="M3 75V52h41v-290H3v-23h71V75H3" id="ci"/><g id="aA"><use transform="matrix(0.03703703703703704,0,0,0.03703703703703704,0,0)" xlink:href="#bX"/><use transform="matrix(0.03703703703703704,0,0,0.03703703703703704,8.88888888888889,0)" xlink:href="#cf"/><use transform="matrix(0.03703703703703704,0,0,0.03703703703703704,15.555555555555557,0)" xlink:href="#cg"/><use transform="matrix(0.03703703703703704,0,0,0.03703703703703704,22.222222222222225,0)" xlink:href="#ca"/><use transform="matrix(0.03703703703703704,0,0,0.03703703703703704,25.92592592592593,0)" xlink:href="#ce"/><use transform="matrix(0.03703703703703704,0,0,0.03703703703703704,33.33333333333334,0)" xlink:href="#ch"/><use transform="matrix(0.03703703703703704,0,0,0.03703703703703704,44.40740740740742,0)" xlink:href="#ci"/></g></defs></g></svg>