<svg xmlns="http://www.w3.org/2000/svg" xmlns:xlink="http://www.w3.org/1999/xlink" xmlns:lucid="lucid" width="1080" height="960"><g transform="translate(1800 -160)" lucid:page-tab-id="l8LzuI24NFOe"><path d="M-1780 180h320v520h-320z" fill-opacity="0"/><path d="M-1749.52 180h30.47m15.24 0h30.47m15.23 0h30.48m15.24 0h30.48m15.23 0h30.48m15.25 0h30.47m15.24 0h15.24v14.44m0 14.45v28.88m0 14.44v28.9m0 14.44v28.88m0 14.45v28.88m0 14.44v28.9m0 14.44v28.88m0 14.45v28.88m0 14.44v28.9m0 14.44v28.88m0 14.45v28.88m0 14.44v28.9m0 14.44V700h-15.24m-15.24 0h-30.47m-15.24 0h-30.47m-15.23 0h-30.48m-15.24 0h-30.48m-15.23 0h-30.48m-15.25 0h-30.47m-15.24 0H-1780v-14.44m0-14.45v-28.88m0-14.44v-28.9m0-14.44v-28.88m0-14.45v-28.88m0-14.44v-28.9m0-14.44v-28.88m0-14.45v-28.88m0-14.44v-28.9m0-14.44v-28.88m0-14.45v-28.88m0-14.44v-28.9m0-14.44V180h15.24" stroke="#666" stroke-width="3" fill="none"/><use xlink:href="#a" transform="matrix(1,0,0,1,-1775,185) translate(0 491.37484800000004)"/><use xlink:href="#b" transform="matrix(1,0,0,1,-1775,185) translate(57.900000000000006 491.37484800000004)"/><use xlink:href="#c" transform="matrix(1,0,0,1,-1775,185) translate(98.55000000000001 491.37484800000004)"/><use xlink:href="#d" transform="matrix(1,0,0,1,-1775,185) translate(0 509.2415146666668)"/><use xlink:href="#e" transform="matrix(1,0,0,1,-1775,185) translate(64.33333333333334 509.2415146666668)"/><path d="M-1780 740h1040v360h-1040z" fill-opacity="0"/><path d="M-1749.86 740h30.15m15.06 0h30.15m15.08 0h30.14m15.08 0h30.14m15.07 0h30.16m15.07 0h30.15m15.07 0h30.14m15.07 0h30.14m15.08 0h30.15m15.07 0h30.15m15.07 0h30.14m15.08 0h30.14m15.07 0h30.15m15.07 0h30.15m15.07 0h30.13m15.08 0h30.15m15.07 0h30.15m15.07 0H-951m15.06 0h30.14m15.08 0h30.14m15.07 0h30.14m15.07 0h30.16m15.07 0H-740v15m0 15v30m0 15v30m0 15v30m0 15v30m0 15v30m0 15v30m0 15v30m0 15v15h-15.07m-15.07 0h-30.15m-15.06 0h-30.15m-15.08 0h-30.14m-15.08 0h-30.14m-15.07 0h-30.16m-15.07 0h-30.15m-15.07 0h-30.14m-15.07 0h-30.14m-15.08 0h-30.15m-15.07 0h-30.15m-15.07 0h-30.14m-15.08 0h-30.14m-15.07 0h-30.15m-15.07 0h-30.15m-15.07 0h-30.13m-15.08 0h-30.15m-15.07 0h-30.15m-15.07 0H-1569m-15.06 0h-30.14m-15.08 0h-30.14m-15.07 0h-30.14m-15.07 0h-30.16m-15.07 0H-1780v-15m0-15v-30m0-15v-30m0-15v-30m0-15v-30m0-15v-30m0-15v-30m0-15v-30m0-15v-15h15.07" stroke="#666" stroke-width="3" fill="none"/><use xlink:href="#f" transform="matrix(1,0,0,1,-1775,745) translate(0 329.53192533333333)"/><use xlink:href="#g" transform="matrix(1,0,0,1,-1775,745) translate(86.75 329.53192533333333)"/><use xlink:href="#b" transform="matrix(1,0,0,1,-1775,745) translate(199.60000000000002 329.53192533333333)"/><use xlink:href="#h" transform="matrix(1,0,0,1,-1775,745) translate(240.25000000000003 329.53192533333333)"/><use xlink:href="#i" transform="matrix(1,0,0,1,-1775,745) translate(251.25000000000003 329.53192533333333)"/><use xlink:href="#j" transform="matrix(1,0,0,1,-1775,745) translate(276.25 329.53192533333333)"/><use xlink:href="#k" transform="matrix(1,0,0,1,-1775,745) translate(295.0722222222222 329.53192533333333)"/><use xlink:href="#l" transform="matrix(1,0,0,1,-1775,745) translate(320.9981481481481 329.53192533333333)"/><use xlink:href="#m" transform="matrix(1,0,0,1,-1775,745) translate(339.82037037037037 329.53192533333333)"/><use xlink:href="#n" transform="matrix(1,0,0,1,-1775,745) translate(365.7462962962963 329.53192533333333)"/><use xlink:href="#d" transform="matrix(1,0,0,1,-1775,745) translate(0 347.66525866666666)"/><use xlink:href="#e" transform="matrix(1,0,0,1,-1775,745) translate(64.33333333333334 347.66525866666666)"/><path d="M-1760 206c0-3.3 2.7-6 6-6h268c3.3 0 6 2.7 6 6v108c0 3.3-2.7 6-6 6h-268c-3.3 0-6-2.7-6-6z" stroke="#c92d39" stroke-width="3" fill="#ff8f80"/><use xlink:href="#o" transform="matrix(1,0,0,1,-1755,205) translate(105.37037037037038 59.02777777777778)"/><path d="M-1760 366c0-3.3 2.7-6 6-6h268c3.3 0 6 2.7 6 6v108c0 3.3-2.7 6-6 6h-268c-3.3 0-6-2.7-6-6z" stroke="#0c7cba" stroke-width="3" fill="#83bbe5"/><use xlink:href="#p" transform="matrix(1,0,0,1,-1755,365) translate(82.77777777777779 59.02777777777778)"/><use xlink:href="#q" transform="matrix(1,0,0,1,-1755,365) translate(162.53086419753086 59.02777777777778)"/><path d="M-1760 526c0-3.3 2.7-6 6-6h268c3.3 0 6 2.7 6 6v108c0 3.3-2.7 6-6 6h-268c-3.3 0-6-2.7-6-6z" stroke="#834187" stroke-width="3" fill="#b391b5"/><use xlink:href="#p" transform="matrix(1,0,0,1,-1755,525) translate(82.77777777777779 59.02777777777778)"/><use xlink:href="#r" transform="matrix(1,0,0,1,-1755,525) translate(162.53086419753086 59.02777777777778)"/><path d="M-1760 766c0-3.3 2.7-6 6-6h988c3.3 0 6 2.7 6 6v108c0 3.3-2.7 6-6 6h-988c-3.3 0-6-2.7-6-6z" stroke="#ef8d22" stroke-width="3" fill="#ffc374"/><use xlink:href="#o" transform="matrix(1,0,0,1,-1755,765) translate(465.3703703703704 59.02777777777778)"/><path d="M-1760 926c0-3.3 2.7-6 6-6h988c3.3 0 6 2.7 6 6v108c0 3.3-2.7 6-6 6h-988c-3.3 0-6-2.7-6-6z" stroke="#7ab648" stroke-width="3" fill="#a3d977"/><use xlink:href="#p" transform="matrix(1,0,0,1,-1755,925) translate(442.77777777777777 59.02777777777778)"/><use xlink:href="#q" transform="matrix(1,0,0,1,-1755,925) translate(522.5308641975308 59.02777777777778)"/><path d="M-1420 180h320v520h-320z" fill-opacity="0"/><path d="M-1389.52 180h30.47m15.24 0h30.47m15.23 0h30.48m15.24 0h30.48m15.23 0h30.48m15.25 0h30.47m15.24 0h15.24v14.44m0 14.45v28.88m0 14.44v28.9m0 14.44v28.88m0 14.45v28.88m0 14.44v28.9m0 14.44v28.88m0 14.45v28.88m0 14.44v28.9m0 14.44v28.88m0 14.45v28.88m0 14.44v28.9m0 14.44V700h-15.24m-15.24 0h-30.47m-15.24 0h-30.47m-15.23 0h-30.48m-15.24 0h-30.48m-15.23 0h-30.48m-15.25 0h-30.47m-15.24 0H-1420v-14.44m0-14.45v-28.88m0-14.44v-28.9m0-14.44v-28.88m0-14.45v-28.88m0-14.44v-28.9m0-14.44v-28.88m0-14.45v-28.88m0-14.44v-28.9m0-14.44v-28.88m0-14.45v-28.88m0-14.44v-28.9m0-14.44V180h15.24" stroke="#666" stroke-width="3" fill="none"/><g><use xlink:href="#a" transform="matrix(1,0,0,1,-1415,185) translate(0 491.37484800000004)"/><use xlink:href="#b" transform="matrix(1,0,0,1,-1415,185) translate(57.900000000000006 491.37484800000004)"/><use xlink:href="#s" transform="matrix(1,0,0,1,-1415,185) translate(98.55000000000001 491.37484800000004)"/><use xlink:href="#d" transform="matrix(1,0,0,1,-1415,185) translate(0 509.2415146666668)"/><use xlink:href="#e" transform="matrix(1,0,0,1,-1415,185) translate(64.33333333333334 509.2415146666668)"/></g><path d="M-1400 206c0-3.3 2.7-6 6-6h268c3.3 0 6 2.7 6 6v108c0 3.3-2.7 6-6 6h-268c-3.3 0-6-2.7-6-6z" stroke="#de5f85" stroke-width="3" fill="#ff8f80"/><g><use xlink:href="#o" transform="matrix(1,0,0,1,-1395,205) translate(105.37037037037038 59.02777777777778)"/></g><path d="M-1400 366c0-3.3 2.7-6 6-6h268c3.3 0 6 2.7 6 6v108c0 3.3-2.7 6-6 6h-268c-3.3 0-6-2.7-6-6z" stroke="#19967d" stroke-width="3" fill="#5abaa7"/><g><use xlink:href="#p" transform="matrix(1,0,0,1,-1395,365) translate(82.77777777777779 59.02777777777778)"/><use xlink:href="#q" transform="matrix(1,0,0,1,-1395,365) translate(162.53086419753086 59.02777777777778)"/></g><path d="M-1400 526c0-3.3 2.7-6 6-6h268c3.3 0 6 2.7 6 6v108c0 3.3-2.7 6-6 6h-268c-3.3 0-6-2.7-6-6z" stroke="#de5f85" stroke-width="3" fill="#f5b5c8"/><g><use xlink:href="#p" transform="matrix(1,0,0,1,-1395,525) translate(82.77777777777779 59.02777777777778)"/><use xlink:href="#r" transform="matrix(1,0,0,1,-1395,525) translate(162.53086419753086 59.02777777777778)"/></g><path d="M-1060 180h320v520h-320z" fill-opacity="0"/><path d="M-1029.52 180h30.47m15.24 0h30.47m15.23 0h30.48m15.24 0h30.48m15.23 0h30.48m15.25 0h30.47m15.24 0H-740v14.44m0 14.45v28.88m0 14.44v28.9m0 14.44v28.88m0 14.45v28.88m0 14.44v28.9m0 14.44v28.88m0 14.45v28.88m0 14.44v28.9m0 14.44v28.88m0 14.45v28.88m0 14.44v28.9m0 14.44V700h-15.24m-15.24 0h-30.47m-15.24 0h-30.47m-15.23 0h-30.48m-15.24 0h-30.48m-15.23 0h-30.48m-15.25 0h-30.47m-15.24 0H-1060v-14.44m0-14.45v-28.88m0-14.44v-28.9m0-14.44v-28.88m0-14.45v-28.88m0-14.44v-28.9m0-14.44v-28.88m0-14.45v-28.88m0-14.44v-28.9m0-14.44v-28.88m0-14.45v-28.88m0-14.44v-28.9m0-14.44V180h15.24" stroke="#666" stroke-width="3" fill="none"/><g><use xlink:href="#a" transform="matrix(1,0,0,1,-1055,185) translate(0 491.37484800000004)"/><use xlink:href="#b" transform="matrix(1,0,0,1,-1055,185) translate(57.900000000000006 491.37484800000004)"/><use xlink:href="#t" transform="matrix(1,0,0,1,-1055,185) translate(98.55000000000001 491.37484800000004)"/><use xlink:href="#d" transform="matrix(1,0,0,1,-1055,185) translate(0 509.2415146666668)"/><use xlink:href="#e" transform="matrix(1,0,0,1,-1055,185) translate(64.33333333333334 509.2415146666668)"/></g><path d="M-1040 206c0-3.3 2.7-6 6-6h268c3.3 0 6 2.7 6 6v108c0 3.3-2.7 6-6 6h-268c-3.3 0-6-2.7-6-6z" stroke="#fcc438" stroke-width="3" fill="#ffdf71"/><g><use xlink:href="#o" transform="matrix(1,0,0,1,-1035,205) translate(105.37037037037038 59.02777777777778)"/></g><path d="M-1040 366c0-3.3 2.7-6 6-6h268c3.3 0 6 2.7 6 6v108c0 3.3-2.7 6-6 6h-268c-3.3 0-6-2.7-6-6z" stroke="#0c7cba" stroke-width="3" fill="#83bbe5"/><g><use xlink:href="#p" transform="matrix(1,0,0,1,-1035,365) translate(82.77777777777779 59.02777777777778)"/><use xlink:href="#q" transform="matrix(1,0,0,1,-1035,365) translate(162.53086419753086 59.02777777777778)"/></g><path d="M-1040 526c0-3.3 2.7-6 6-6h268c3.3 0 6 2.7 6 6v108c0 3.3-2.7 6-6 6h-268c-3.3 0-6-2.7-6-6z" stroke="#19967d" stroke-width="3" fill="#5abaa7"/><g><use xlink:href="#p" transform="matrix(1,0,0,1,-1035,525) translate(82.77777777777779 59.02777777777778)"/><use xlink:href="#r" transform="matrix(1,0,0,1,-1035,525) translate(162.53086419753086 59.02777777777778)"/></g><defs><path d="M160-131c35 5 61 23 61 61C221 17 115-2 30 0v-248c76 3 177-17 177 60 0 33-19 50-47 57zm-97-11c50-1 110 9 110-42 0-47-63-36-110-37v79zm0 115c55-2 124 14 124-45 0-56-70-42-124-44v89" id="u"/><path d="M232-93c-1 65-40 97-104 97C67 4 28-28 28-90v-158h33c8 89-33 224 67 224 102 0 64-133 71-224h33v155" id="v"/><path d="M33 0v-248h34V0H33" id="w"/><path d="M30 0v-248h33v221h125V0H30" id="x"/><path d="M30-248c118-7 216 8 213 122C240-48 200 0 122 0H30v-248zM63-27c89 8 146-16 146-99s-60-101-146-95v194" id="y"/><g id="a"><use transform="matrix(0.05,0,0,0.05,0,0)" xlink:href="#u"/><use transform="matrix(0.05,0,0,0.05,12,0)" xlink:href="#v"/><use transform="matrix(0.05,0,0,0.05,24.950000000000003,0)" xlink:href="#w"/><use transform="matrix(0.05,0,0,0.05,29.950000000000003,0)" xlink:href="#x"/><use transform="matrix(0.05,0,0,0.05,39.95,0)" xlink:href="#y"/></g><path d="M205 0l-28-72H64L36 0H1l101-248h38L239 0h-34zm-38-99l-47-123c-12 45-31 82-46 123h93" id="z"/><path d="M30-248c87 1 191-15 191 75 0 78-77 80-158 76V0H30v-248zm33 125c57 0 124 11 124-50 0-59-68-47-124-48v98" id="A"/><g id="b"><use transform="matrix(0.05,0,0,0.05,0,0)" xlink:href="#z"/><use transform="matrix(0.05,0,0,0.05,12,0)" xlink:href="#A"/><use transform="matrix(0.05,0,0,0.05,24,0)" xlink:href="#A"/></g><path d="M158-156l-14 65h45v19h-49L124 0h-19l15-72H56L41 0H22l15-72H2v-19h39l14-65H11v-19h48l15-71h20l-16 71h64l16-71h19l-16 71h37v19h-40zm-83 0L61-91h63l14-65H75" id="B"/><path d="M27 0v-27h64v-190l-56 39v-29l58-41h29v221h61V0H27" id="C"/><g id="c"><use transform="matrix(0.05,0,0,0.05,0,0)" xlink:href="#B"/><use transform="matrix(0.05,0,0,0.05,10,0)" xlink:href="#C"/></g><path fill="#999" d="M26 75v-336h71v23H56V52h41v23H26" id="D"/><path fill="#999" d="M30-248c118-7 216 8 213 122C240-48 200 0 122 0H30v-248zM63-27c89 8 146-16 146-99s-60-101-146-95v194" id="E"/><path fill="#999" d="M140-251c81 0 123 46 123 126C263-46 219 4 140 4 59 4 17-45 17-125s42-126 123-126zm0 227c63 0 89-41 89-101s-29-99-89-99c-61 0-89 39-89 99S79-25 140-24" id="F"/><path fill="#999" d="M212-179c-10-28-35-45-73-45-59 0-87 40-87 99 0 60 29 101 89 101 43 0 62-24 78-52l27 14C228-24 195 4 139 4 59 4 22-46 18-125c-6-104 99-153 187-111 19 9 31 26 39 46" id="G"/><path fill="#999" d="M194 0L95-120 63-95V0H30v-248h33v124l119-124h40L117-140 236 0h-42" id="H"/><path fill="#999" d="M30 0v-248h187v28H63v79h144v27H63v87h162V0H30" id="I"/><path fill="#999" d="M233-177c-1 41-23 64-60 70L243 0h-38l-65-103H63V0H30v-248c88 3 205-21 203 71zM63-129c60-2 137 13 137-47 0-61-80-42-137-45v92" id="J"/><g id="d"><use transform="matrix(0.03703703703703704,0,0,0.03703703703703704,0,0)" xlink:href="#D"/><use transform="matrix(0.03703703703703704,0,0,0.03703703703703704,3.703703703703704,0)" xlink:href="#E"/><use transform="matrix(0.03703703703703704,0,0,0.03703703703703704,13.296296296296298,0)" xlink:href="#F"/><use transform="matrix(0.03703703703703704,0,0,0.03703703703703704,23.66666666666667,0)" xlink:href="#G"/><use transform="matrix(0.03703703703703704,0,0,0.03703703703703704,33.25925925925927,0)" xlink:href="#H"/><use transform="matrix(0.03703703703703704,0,0,0.03703703703703704,42.14814814814815,0)" xlink:href="#I"/><use transform="matrix(0.03703703703703704,0,0,0.03703703703703704,51.03703703703704,0)" xlink:href="#J"/></g><path fill="#999" d="M185-189c-5-48-123-54-124 2 14 75 158 14 163 119 3 78-121 87-175 55-17-10-28-26-33-46l33-7c5 56 141 63 141-1 0-78-155-14-162-118-5-82 145-84 179-34 5 7 8 16 11 25" id="K"/><path fill="#999" d="M127-220V0H93v-220H8v-28h204v28h-85" id="L"/><path fill="#999" d="M205 0l-28-72H64L36 0H1l101-248h38L239 0h-34zm-38-99l-47-123c-12 45-31 82-46 123h93" id="M"/><path fill="#999" d="M143 4C61 4 22-44 18-125c-5-107 100-154 193-111 17 8 29 25 37 43l-32 9c-13-25-37-40-76-40-61 0-88 39-88 99 0 61 29 100 91 101 35 0 62-11 79-27v-45h-74v-28h105v86C228-13 192 4 143 4" id="N"/><path fill="#999" d="M3 75V52h41v-290H3v-23h71V75H3" id="O"/><g id="e"><use transform="matrix(0.03703703703703704,0,0,0.03703703703703704,0,0)" xlink:href="#K"/><use transform="matrix(0.03703703703703704,0,0,0.03703703703703704,8.88888888888889,0)" xlink:href="#L"/><use transform="matrix(0.03703703703703704,0,0,0.03703703703703704,16,0)" xlink:href="#M"/><use transform="matrix(0.03703703703703704,0,0,0.03703703703703704,24.88888888888889,0)" xlink:href="#N"/><use transform="matrix(0.03703703703703704,0,0,0.03703703703703704,35.25925925925926,0)" xlink:href="#I"/><use transform="matrix(0.03703703703703704,0,0,0.03703703703703704,44.14814814814815,0)" xlink:href="#K"/><use transform="matrix(0.03703703703703704,0,0,0.03703703703703704,53.03703703703704,0)" xlink:href="#O"/></g><path d="M233-177c-1 41-23 64-60 70L243 0h-38l-65-103H63V0H30v-248c88 3 205-21 203 71zM63-129c60-2 137 13 137-47 0-61-80-42-137-45v92" id="P"/><path d="M190 0L58-211 59 0H30v-248h39L202-35l-2-213h31V0h-41" id="Q"/><path d="M127-220V0H93v-220H8v-28h204v28h-85" id="R"/><path d="M240 0l2-218c-23 76-54 145-80 218h-23L58-218 59 0H30v-248h44l77 211c21-75 51-140 76-211h43V0h-30" id="S"/><path d="M30 0v-248h187v28H63v79h144v27H63v87h162V0H30" id="T"/><g id="f"><use transform="matrix(0.05,0,0,0.05,0,0)" xlink:href="#P"/><use transform="matrix(0.05,0,0,0.05,12.950000000000001,0)" xlink:href="#v"/><use transform="matrix(0.05,0,0,0.05,25.900000000000002,0)" xlink:href="#Q"/><use transform="matrix(0.05,0,0,0.05,38.85,0)" xlink:href="#R"/><use transform="matrix(0.05,0,0,0.05,49.800000000000004,0)" xlink:href="#w"/><use transform="matrix(0.05,0,0,0.05,54.800000000000004,0)" xlink:href="#S"/><use transform="matrix(0.05,0,0,0.05,69.75,0)" xlink:href="#T"/></g><path d="M212-179c-10-28-35-45-73-45-59 0-87 40-87 99 0 60 29 101 89 101 43 0 62-24 78-52l27 14C228-24 195 4 139 4 59 4 22-46 18-125c-6-104 99-153 187-111 19 9 31 26 39 46" id="U"/><path d="M140-251c81 0 123 46 123 126C263-46 219 4 140 4 59 4 17-45 17-125s42-126 123-126zm0 227c63 0 89-41 89-101s-29-99-89-99c-61 0-89 39-89 99S79-25 140-24" id="V"/><path d="M185-189c-5-48-123-54-124 2 14 75 158 14 163 119 3 78-121 87-175 55-17-10-28-26-33-46l33-7c5 56 141 63 141-1 0-78-155-14-162-118-5-82 145-84 179-34 5 7 8 16 11 25" id="W"/><g id="g"><use transform="matrix(0.05,0,0,0.05,0,0)" xlink:href="#U"/><use transform="matrix(0.05,0,0,0.05,12.950000000000001,0)" xlink:href="#V"/><use transform="matrix(0.05,0,0,0.05,26.950000000000003,0)" xlink:href="#S"/><use transform="matrix(0.05,0,0,0.05,41.900000000000006,0)" xlink:href="#A"/><use transform="matrix(0.05,0,0,0.05,53.900000000000006,0)" xlink:href="#V"/><use transform="matrix(0.05,0,0,0.05,67.9,0)" xlink:href="#W"/><use transform="matrix(0.05,0,0,0.05,79.9,0)" xlink:href="#w"/><use transform="matrix(0.05,0,0,0.05,84.9,0)" xlink:href="#R"/><use transform="matrix(0.05,0,0,0.05,95.85000000000001,0)" xlink:href="#T"/></g><path d="M39-94c74 12-11 154 75 146v23c-44 4-70-10-70-52C44-23 55-84 6-82v-22c81 4-7-162 84-157h24v23c-82-15-2 131-75 144" id="X"/><use transform="matrix(0.05,0,0,0.05,0,0)" xlink:href="#X" id="h"/><g id="i"><use transform="matrix(0.05,0,0,0.05,0,0)" xlink:href="#B"/><use transform="matrix(0.05,0,0,0.05,10,0)" xlink:href="#C"/></g><path fill="#202122" d="M132 0C33 0 45-110 46-208h31c5 73-22 179 55 179s50-107 55-179h30c0 97 15 208-85 208" id="Y"/><use transform="matrix(0.05185185185185186,0,0,0.05185185185185186,0,0)" xlink:href="#Y" id="j"/><path fill="#202122" d="M158-156l-14 65h45v19h-49L124 0h-19l15-72H56L41 0H22l15-72H2v-19h39l14-65H11v-19h48l15-71h20l-16 71h64l16-71h19l-16 71h37v19h-40zm-83 0L61-91h63l14-65H75" id="Z"/><path fill="#202122" d="M101-251c82-7 93 87 43 132L82-64C71-53 59-42 53-27h129V0H18c2-99 128-94 128-182 0-28-16-43-45-43s-46 15-49 41l-32-3c6-41 34-60 81-64" id="aa"/><g id="k"><use transform="matrix(0.05185185185185186,0,0,0.05185185185185186,0,0)" xlink:href="#Z"/><use transform="matrix(0.05185185185185186,0,0,0.05185185185185186,10.370370370370372,0)" xlink:href="#aa"/></g><use transform="matrix(0.05185185185185186,0,0,0.05185185185185186,0,0)" xlink:href="#Y" id="l"/><path fill="#202122" d="M126-127c33 6 58 20 58 59 0 88-139 92-164 29-3-8-5-16-6-25l32-3c6 27 21 44 54 44 32 0 52-15 52-46 0-38-36-46-79-43v-28c39 1 72-4 72-42 0-27-17-43-46-43-28 0-47 15-49 41l-32-3c6-42 35-63 81-64 48-1 79 21 79 65 0 36-21 52-52 59" id="ab"/><g id="m"><use transform="matrix(0.05185185185185186,0,0,0.05185185185185186,0,0)" xlink:href="#Z"/><use transform="matrix(0.05185185185185186,0,0,0.05185185185185186,10.370370370370372,0)" xlink:href="#ab"/></g><path fill="#202122" d="M76-40C78 24 84 88 6 75V52C86 64 9-79 80-94c-40-6-34-59-34-106 1-29-11-41-40-38v-23c44-4 70 10 70 52 0 47-12 108 38 105v22c-26 1-39 14-38 42" id="ac"/><use transform="matrix(0.05185185185185186,0,0,0.05185185185185186,0,0)" xlink:href="#ac" id="n"/><path fill="#333" d="M160-131c35 5 61 23 61 61C221 17 115-2 30 0v-248c76 3 177-17 177 60 0 33-19 50-47 57zm-97-11c50-1 110 9 110-42 0-47-63-36-110-37v79zm0 115c55-2 124 14 124-45 0-56-70-42-124-44v89" id="ad"/><path fill="#333" d="M205 0l-28-72H64L36 0H1l101-248h38L239 0h-34zm-38-99l-47-123c-12 45-31 82-46 123h93" id="ae"/><path fill="#333" d="M185-189c-5-48-123-54-124 2 14 75 158 14 163 119 3 78-121 87-175 55-17-10-28-26-33-46l33-7c5 56 141 63 141-1 0-78-155-14-162-118-5-82 145-84 179-34 5 7 8 16 11 25" id="af"/><path fill="#333" d="M30 0v-248h187v28H63v79h144v27H63v87h162V0H30" id="ag"/><g id="o"><use transform="matrix(0.06172839506172839,0,0,0.06172839506172839,0,0)" xlink:href="#ad"/><use transform="matrix(0.06172839506172839,0,0,0.06172839506172839,14.814814814814813,0)" xlink:href="#ae"/><use transform="matrix(0.06172839506172839,0,0,0.06172839506172839,29.629629629629626,0)" xlink:href="#af"/><use transform="matrix(0.06172839506172839,0,0,0.06172839506172839,44.44444444444444,0)" xlink:href="#ag"/></g><path fill="#333" d="M127-220V0H93v-220H8v-28h204v28h-85" id="ah"/><path fill="#333" d="M143 4C61 4 22-44 18-125c-5-107 100-154 193-111 17 8 29 25 37 43l-32 9c-13-25-37-40-76-40-61 0-88 39-88 99 0 61 29 100 91 101 35 0 62-11 79-27v-45h-74v-28h105v86C228-13 192 4 143 4" id="ai"/><g id="p"><use transform="matrix(0.06172839506172839,0,0,0.06172839506172839,0,0)" xlink:href="#af"/><use transform="matrix(0.06172839506172839,0,0,0.06172839506172839,14.814814814814813,0)" xlink:href="#ah"/><use transform="matrix(0.06172839506172839,0,0,0.06172839506172839,26.666666666666664,0)" xlink:href="#ae"/><use transform="matrix(0.06172839506172839,0,0,0.06172839506172839,41.48148148148148,0)" xlink:href="#ai"/><use transform="matrix(0.06172839506172839,0,0,0.06172839506172839,58.76543209876543,0)" xlink:href="#ag"/></g><path fill="#333" d="M158-156l-14 65h45v19h-49L124 0h-19l15-72H56L41 0H22l15-72H2v-19h39l14-65H11v-19h48l15-71h20l-16 71h64l16-71h19l-16 71h37v19h-40zm-83 0L61-91h63l14-65H75" id="aj"/><path fill="#333" d="M27 0v-27h64v-190l-56 39v-29l58-41h29v221h61V0H27" id="ak"/><g id="q"><use transform="matrix(0.06172839506172839,0,0,0.06172839506172839,0,0)" xlink:href="#aj"/><use transform="matrix(0.06172839506172839,0,0,0.06172839506172839,12.345679012345679,0)" xlink:href="#ak"/></g><path fill="#333" d="M101-251c82-7 93 87 43 132L82-64C71-53 59-42 53-27h129V0H18c2-99 128-94 128-182 0-28-16-43-45-43s-46 15-49 41l-32-3c6-41 34-60 81-64" id="al"/><g id="r"><use transform="matrix(0.06172839506172839,0,0,0.06172839506172839,0,0)" xlink:href="#aj"/><use transform="matrix(0.06172839506172839,0,0,0.06172839506172839,12.345679012345679,0)" xlink:href="#al"/></g><path d="M101-251c82-7 93 87 43 132L82-64C71-53 59-42 53-27h129V0H18c2-99 128-94 128-182 0-28-16-43-45-43s-46 15-49 41l-32-3c6-41 34-60 81-64" id="am"/><g id="s"><use transform="matrix(0.05,0,0,0.05,0,0)" xlink:href="#B"/><use transform="matrix(0.05,0,0,0.05,10,0)" xlink:href="#am"/></g><path d="M126-127c33 6 58 20 58 59 0 88-139 92-164 29-3-8-5-16-6-25l32-3c6 27 21 44 54 44 32 0 52-15 52-46 0-38-36-46-79-43v-28c39 1 72-4 72-42 0-27-17-43-46-43-28 0-47 15-49 41l-32-3c6-42 35-63 81-64 48-1 79 21 79 65 0 36-21 52-52 59" id="an"/><g id="t"><use transform="matrix(0.05,0,0,0.05,0,0)" xlink:href="#B"/><use transform="matrix(0.05,0,0,0.05,10,0)" xlink:href="#an"/></g></defs></g></svg>