<svg xmlns="http://www.w3.org/2000/svg" xmlns:xlink="http://www.w3.org/1999/xlink" xmlns:lucid="lucid" width="2103" height="1744.5"><g transform="translate(1181.5 461.5)" lucid:page-tab-id="0_0"><path d="M-400-94a6 6 0 0 1 6-6h508a6 6 0 0 1 6 6v288a6 6 0 0 1-6 6h-508a6 6 0 0 1-6-6z" stroke="#5e5e5e" stroke-width="3" fill="#ccc"/><path d="M-365-70c0 5.52-4.48 10-10 10s-10-4.48-10-10 4.48-10 10-10 10 4.48 10 10zM-338-70c0 5.52-4.48 10-10 10s-10-4.48-10-10 4.48-10 10-10 10 4.48 10 10zM-311-70c0 5.52-4.48 10-10 10s-10-4.48-10-10 4.48-10 10-10 10 4.48 10 10zM-298-74a6 6 0 0 1 6-6H94a6 6 0 0 1 6 6v8a6 6 0 0 1-6 6h-386a6 6 0 0 1-6-6zM-380-34a6 6 0 0 1 6-6H94a6 6 0 0 1 6 6v208a6 6 0 0 1-6 6h-468a6 6 0 0 1-6-6z" stroke="#5e5e5e" stroke-width="3" fill="#fff"/><path d="M-366-24a6 6 0 0 1 6-6h32a6 6 0 0 1 6 6v188a6 6 0 0 1-6 6h-32a6 6 0 0 1-6-6z" stroke="#de5f85" stroke-width="3" fill="#f5b5c8"/><path d="M-315-24a6 6 0 0 1 6-6H79a6 6 0 0 1 6 6v188a6 6 0 0 1-6 6h-388a6 6 0 0 1-6-6z" stroke="#ef8d22" stroke-width="3" fill="#ffc374"/><path d="M-400 264.5a6 6 0 0 1 6-6h508a6 6 0 0 1 6 6v288a6 6 0 0 1-6 6h-508a6 6 0 0 1-6-6z" stroke="#5e5e5e" stroke-width="3" fill="#ccc"/><path d="M-365 288.5c0 5.52-4.48 10-10 10s-10-4.48-10-10 4.48-10 10-10 10 4.48 10 10zM-338 288.5c0 5.52-4.48 10-10 10s-10-4.48-10-10 4.48-10 10-10 10 4.48 10 10zM-311 288.5c0 5.52-4.48 10-10 10s-10-4.48-10-10 4.48-10 10-10 10 4.48 10 10zM-298 284.5a6 6 0 0 1 6-6H94a6 6 0 0 1 6 6v8a6 6 0 0 1-6 6h-386a6 6 0 0 1-6-6zM-380 324.5a6 6 0 0 1 6-6H94a6 6 0 0 1 6 6v208a6 6 0 0 1-6 6h-468a6 6 0 0 1-6-6z" stroke="#5e5e5e" stroke-width="3" fill="#fff"/><path d="M-366 334.5a6 6 0 0 1 6-6h32a6 6 0 0 1 6 6v188a6 6 0 0 1-6 6h-32a6 6 0 0 1-6-6z" stroke="#de5f85" stroke-width="3" fill="#f5b5c8"/><path d="M-315 334.5a6 6 0 0 1 6-6H79a6 6 0 0 1 6 6v188a6 6 0 0 1-6 6h-388a6 6 0 0 1-6-6z" stroke="#7ab648" stroke-width="3" fill="#a3d977"/><path d="M-818-454a6 6 0 0 1 6-6h508a6 6 0 0 1 6 6v288a6 6 0 0 1-6 6h-508a6 6 0 0 1-6-6z" stroke="#5e5e5e" stroke-width="3" fill="#ccc"/><path d="M-783-430c0 5.52-4.48 10-10 10s-10-4.48-10-10 4.48-10 10-10 10 4.48 10 10zM-756-430c0 5.52-4.48 10-10 10s-10-4.48-10-10 4.48-10 10-10 10 4.48 10 10zM-729-430c0 5.52-4.48 10-10 10s-10-4.48-10-10 4.48-10 10-10 10 4.48 10 10zM-716-434a6 6 0 0 1 6-6h386a6 6 0 0 1 6 6v8a6 6 0 0 1-6 6h-386a6 6 0 0 1-6-6zM-798-394a6 6 0 0 1 6-6h468a6 6 0 0 1 6 6v208a6 6 0 0 1-6 6h-468a6 6 0 0 1-6-6z" stroke="#5e5e5e" stroke-width="3" fill="#fff"/><path d="M-557.02 43.96l.06.83.18.75.3.73.42.67.5.6.6.5.68.43.73.3.76.18.84.06H-541v1.95h-11.04l-1.05-.08-1.06-.26-1-.42-.94-.57-.83-.72-.72-.83-.57-.93-.42-1-.25-1.08-.08-1.06V34.4h1.96zm39.7 7.02H-530v-1.95h12.67zm97.32 0h-11v-1.95h11zm-22 0h-.7v-1.95h.7zM-557.02 24.8H-559V5.63h1.96zm0-28.78H-559v-19.2h1.96zm0-28.78H-559v-19.2h1.96zm0-28.8H-559v-19.18h1.96zm0-28.77H-559v-19.2h1.96zm0-28.8H-559v-19.18h1.96zm0-28.78H-559v-9.6h1.96z" stroke="#b2b2b2" stroke-width=".05" fill="#b2b2b2"/><path d="M-557.02-157.47H-559v-1.03h1.96z" fill="#b2b2b2"/><path stroke="#b2b2b2" stroke-width=".05" fill="#b2b2b2"/><path d="M-404.74 50L-419 54.63v-9.27z" fill="#b2b2b2"/><path d="M-401.58 50l-18.4 5.98V44.02zm-16.45 3.3l10.14-3.3-10.13-3.3z" stroke="#b2b2b2" stroke-width=".05" fill="#b2b2b2"/><use xlink:href="#a" transform="matrix(1,0,0,1,-517.3272188962961,39.33333333333333) translate(0 14.222222222222223)"/><use xlink:href="#b" transform="matrix(1,0,0,1,-517.3272188962961,39.33333333333333) translate(64.74074074074075 14.222222222222223)"/><path d="M-557.02 402.46l.06.83.18.75.3.73.42.67.5.6.6.5.68.43.73.3.76.18.84.06H-541v1.96h-11.04l-1.05-.1-1.06-.24-1-.42-.94-.58-.83-.7-.72-.84-.57-.93-.42-1-.25-1.08-.08-1.06v-9.87h1.96zm40.44 7.02H-530v-1.96h13.42zm96.58 0h-11v-1.96h11zm-137.02-26.63H-559V363.2h1.96zm0-29.47H-559v-19.65h1.96zm0-29.48H-559v-19.65h1.96zm0-29.47H-559v-19.65h1.96zm0-29.47H-559V245.3h1.96zm0-29.48H-559v-19.65h1.96zm0-29.47H-559v-19.64h1.96zm0-29.47H-559V156.9h1.96zm0-29.47H-559V127.4h1.96zm0-29.47H-559V97.93h1.96zm0-29.5H-559V68.48h1.96zm0-29.46H-559V39h1.96zm0-29.47H-559V9.52h1.96zm0-29.48H-559v-19.66h1.96zm0-29.48H-559v-19.65h1.96zm0-29.47H-559V-78.9h1.96zm0-29.48H-559v-19.65h1.96zm0-29.47H-559v-19.65h1.96zm0-29.48H-559v-9.82h1.96z" stroke="#b2b2b2" stroke-width=".05" fill="#b2b2b2"/><path d="M-557.02-157.47H-559v-1.03h1.96z" fill="#b2b2b2"/><path stroke="#b2b2b2" stroke-width=".05" fill="#b2b2b2"/><path d="M-404.74 408.5l-14.26 4.63v-9.26z" fill="#b2b2b2"/><path d="M-401.58 408.5l-18.4 5.98v-11.96zm-16.45 3.3l10.14-3.3-10.13-3.3z" stroke="#b2b2b2" stroke-width=".05" fill="#b2b2b2"/><use xlink:href="#a" transform="matrix(1,0,0,1,-516.57704869055,397.83333333333337) translate(0 14.222222222222223)"/><use xlink:href="#c" transform="matrix(1,0,0,1,-516.57704869055,397.83333333333337) translate(64.74074074074075 14.222222222222223)"/><path d="M-785-384a6 6 0 0 1 6-6h442a6 6 0 0 1 6 6v188a6 6 0 0 1-6 6h-442a6 6 0 0 1-6-6zM-1180 107.87a6 6 0 0 1 6-6h448a6 6 0 0 1 6 6v48a6 6 0 0 1-6 6h-448a6 6 0 0 1-6-6z" stroke="#3aa6dd" stroke-width="3" fill="#99d2f2"/><use xlink:href="#d" transform="matrix(1,0,0,1,-1175,106.86990469167222) translate(97.28395061728395 30.27777777777778)"/><use xlink:href="#e" transform="matrix(1,0,0,1,-1175,106.86990469167222) translate(195.4320987654321 30.27777777777778)"/><use xlink:href="#f" transform="matrix(1,0,0,1,-1175,106.86990469167222) translate(214.5679012345679 30.27777777777778)"/><path d="M-1180 187.87a6 6 0 0 1 6-6h448a6 6 0 0 1 6 6v48a6 6 0 0 1-6 6h-448a6 6 0 0 1-6-6z" stroke="#de5f85" stroke-width="3" fill="#f5b5c8"/><use xlink:href="#g" transform="matrix(1,0,0,1,-1175,186.86990469167222) translate(144.84567901234567 30.27777777777778)"/><use xlink:href="#h" transform="matrix(1,0,0,1,-1175,186.86990469167222) translate(255.7716049382716 30.27777777777778)"/><path d="M-1180 267.87a6 6 0 0 1 6-6h448a6 6 0 0 1 6 6v48a6 6 0 0 1-6 6h-448a6 6 0 0 1-6-6z" stroke="#ef8d22" stroke-width="3" fill="#ffc374"/><use xlink:href="#i" transform="matrix(1,0,0,1,-1175,266.8699046916722) translate(175.06172839506172 30.27777777777778)"/><use xlink:href="#j" transform="matrix(1,0,0,1,-1175,266.8699046916722) translate(230.61728395061726 30.27777777777778)"/><path d="M-1180 347.87a6 6 0 0 1 6-6h448a6 6 0 0 1 6 6v48a6 6 0 0 1-6 6h-448a6 6 0 0 1-6-6z" stroke="#7ab648" stroke-width="3" fill="#a3d977"/><use xlink:href="#k" transform="matrix(1,0,0,1,-1175,346.8699046916722) translate(132.5 30.27777777777778)"/><use xlink:href="#l" transform="matrix(1,0,0,1,-1175,346.8699046916722) translate(212.62345679012344 30.27777777777778)"/><path d="M-1180 427.87a6 6 0 0 1 6-6h448a6 6 0 0 1 6 6v48a6 6 0 0 1-6 6h-448a6 6 0 0 1-6-6z" stroke="#834187" stroke-width="3" fill="#b391b5"/><use xlink:href="#m" transform="matrix(1,0,0,1,-1175,426.8699046916722) translate(130.15432098765433 30.27777777777778)"/><use xlink:href="#n" transform="matrix(1,0,0,1,-1175,426.8699046916722) translate(239.78395061728395 30.27777777777778)"/><path d="M-400 626a6 6 0 0 1 6-6h508a6 6 0 0 1 6 6v288a6 6 0 0 1-6 6h-508a6 6 0 0 1-6-6z" stroke="#5e5e5e" stroke-width="3" fill="#ccc"/><path d="M-365 650c0 5.52-4.48 10-10 10s-10-4.48-10-10 4.48-10 10-10 10 4.48 10 10zM-338 650c0 5.52-4.48 10-10 10s-10-4.48-10-10 4.48-10 10-10 10 4.48 10 10zM-311 650c0 5.52-4.48 10-10 10s-10-4.48-10-10 4.48-10 10-10 10 4.48 10 10zM-298 646a6 6 0 0 1 6-6H94a6 6 0 0 1 6 6v8a6 6 0 0 1-6 6h-386a6 6 0 0 1-6-6zM-380 686a6 6 0 0 1 6-6H94a6 6 0 0 1 6 6v208a6 6 0 0 1-6 6h-468a6 6 0 0 1-6-6z" stroke="#5e5e5e" stroke-width="3" fill="#fff"/><path d="M-366 696a6 6 0 0 1 6-6h32a6 6 0 0 1 6 6v188a6 6 0 0 1-6 6h-32a6 6 0 0 1-6-6z" stroke="#de5f85" stroke-width="3" fill="#f5b5c8"/><path d="M-315 696a6 6 0 0 1 6-6H79a6 6 0 0 1 6 6v188a6 6 0 0 1-6 6h-388a6 6 0 0 1-6-6z" stroke="#834187" stroke-width="3" fill="#b391b5"/><path d="M-557.02 763.96l.06.83.18.75.3.73.42.67.5.6.6.5.68.43.73.3.76.18.84.06H-541V771h-11.04l-1.05-.1-1.06-.24-1-.42-.94-.58-.83-.7-.72-.84-.57-.93-.42-1-.25-1.08-.08-1.06v-10.16h1.96zm39.53 7H-530v-1.94h12.5zm97.5 0h-11v-1.94h11zm-22 0h-.88v-1.94h.88zm-115.02-27.2H-559V723.5h1.96zm0-30.38H-559v-20.25h1.96zm0-30.37H-559v-20.24h1.96zm0-30.36H-559V632.4h1.96zm0-30.37H-559v-20.25h1.96zm0-30.37H-559v-20.25h1.96zm0-30.37H-559v-20.25h1.96zm0-30.37H-559V510.9h1.96zm0-30.37H-559v-20.26h1.96zm0-30.4H-559v-20.23h1.96zm0-30.36H-559V419.8h1.96zm0-30.37H-559v-20.25h1.96zm0-30.37H-559v-20.25h1.96zm0-30.37H-559v-20.25h1.96zm0-30.37H-559V298.3h1.96zm0-30.37H-559v-20.26h1.96zm0-30.38H-559v-20.25h1.96zm0-30.37H-559V207.2h1.96zm0-30.38H-559v-20.24h1.96zm0-30.37H-559v-20.24h1.96zm0-30.37H-559V116.1h1.96zm0-30.37H-559V85.72h1.96zm0-30.37H-559V55.33h1.96zm0-30.38H-559V24.97h1.96zm0-30.37H-559V-5.4h1.96zm0-30.37H-559v-20.25h1.96zm0-30.37H-559v-20.24h1.96zm0-30.36H-559V-96.5h1.96zm0-30.37H-559v-20.25h1.96zm0-30.38H-559v-20.25h1.96zm0-30.38H-559v-10.12h1.96z" stroke="#b2b2b2" stroke-width=".05" fill="#b2b2b2"/><path d="M-557.02-177.47H-559v-1.03h1.96z" fill="#b2b2b2"/><path stroke="#b2b2b2" stroke-width=".05" fill="#b2b2b2"/><path d="M-404.74 770l-14.26 4.63v-9.26z" fill="#b2b2b2"/><path d="M-401.58 770l-18.4 5.98v-11.96zm-16.45 3.3l10.14-3.3-10.13-3.3z" stroke="#b2b2b2" stroke-width=".05" fill="#b2b2b2"/><use xlink:href="#a" transform="matrix(1,0,0,1,-517.4939233864617,759.3333333333334) translate(0 14.222222222222223)"/><use xlink:href="#o" transform="matrix(1,0,0,1,-517.4939233864617,759.3333333333334) translate(64.74074074074075 14.222222222222223)"/><path d="M400 264.5a6 6 0 0 1 6-6h508a6 6 0 0 1 6 6v288a6 6 0 0 1-6 6H406a6 6 0 0 1-6-6z" stroke="#5e5e5e" stroke-width="3" fill="#ccc"/><path d="M435 288.5c0 5.52-4.48 10-10 10s-10-4.48-10-10 4.48-10 10-10 10 4.48 10 10zM462 288.5c0 5.52-4.48 10-10 10s-10-4.48-10-10 4.48-10 10-10 10 4.48 10 10zM489 288.5c0 5.52-4.48 10-10 10s-10-4.48-10-10 4.48-10 10-10 10 4.48 10 10zM502 284.5a6 6 0 0 1 6-6h386a6 6 0 0 1 6 6v8a6 6 0 0 1-6 6H508a6 6 0 0 1-6-6zM420 324.5a6 6 0 0 1 6-6h468a6 6 0 0 1 6 6v208a6 6 0 0 1-6 6H426a6 6 0 0 1-6-6z" stroke="#5e5e5e" stroke-width="3" fill="#fff"/><path d="M434 334.5a6 6 0 0 1 6-6h32a6 6 0 0 1 6 6v188a6 6 0 0 1-6 6h-32a6 6 0 0 1-6-6z" stroke="#de5f85" stroke-width="3" fill="#f5b5c8"/><path d="M485 334.5a6 6 0 0 1 6-6h283a6 6 0 0 1 6 6v188a6 6 0 0 1-6 6H491a6 6 0 0 1-6-6z" stroke="#7ab648" stroke-width="3" fill="#a3d977"/><path d="M787 334.5a6 6 0 0 1 6-6h96a6 6 0 0 1 6 6v188a6 6 0 0 1-6 6h-96a6 6 0 0 1-6-6z" stroke="#e81313" stroke-width="3" fill="#ff8f8f"/><path d="M260-158.5v1317" stroke="#5e5e5e" stroke-width="3" stroke-linecap="round" fill="none"/><path d="M400-94a6 6 0 0 1 6-6h508a6 6 0 0 1 6 6v288a6 6 0 0 1-6 6H406a6 6 0 0 1-6-6z" stroke="#5e5e5e" stroke-width="3" fill="#ccc"/><path d="M435-70c0 5.52-4.48 10-10 10s-10-4.48-10-10 4.48-10 10-10 10 4.48 10 10zM462-70c0 5.52-4.48 10-10 10s-10-4.48-10-10 4.48-10 10-10 10 4.48 10 10zM489-70c0 5.52-4.48 10-10 10s-10-4.48-10-10 4.48-10 10-10 10 4.48 10 10zM502-74a6 6 0 0 1 6-6h386a6 6 0 0 1 6 6v8a6 6 0 0 1-6 6H508a6 6 0 0 1-6-6zM420-34a6 6 0 0 1 6-6h468a6 6 0 0 1 6 6v208a6 6 0 0 1-6 6H426a6 6 0 0 1-6-6z" stroke="#5e5e5e" stroke-width="3" fill="#fff"/><path d="M434-24a6 6 0 0 1 6-6h32a6 6 0 0 1 6 6v188a6 6 0 0 1-6 6h-32a6 6 0 0 1-6-6z" stroke="#de5f85" stroke-width="3" fill="#f5b5c8"/><path d="M485-24a6 6 0 0 1 6-6h388a6 6 0 0 1 6 6v188a6 6 0 0 1-6 6H491a6 6 0 0 1-6-6z" stroke="#ef8d22" stroke-width="3" fill="#ffc374"/><path d="M400 626a6 6 0 0 1 6-6h508a6 6 0 0 1 6 6v288a6 6 0 0 1-6 6H406a6 6 0 0 1-6-6z" stroke="#5e5e5e" stroke-width="3" fill="#ccc"/><path d="M435 650c0 5.52-4.48 10-10 10s-10-4.48-10-10 4.48-10 10-10 10 4.48 10 10zM462 650c0 5.52-4.48 10-10 10s-10-4.48-10-10 4.48-10 10-10 10 4.48 10 10zM489 650c0 5.52-4.48 10-10 10s-10-4.48-10-10 4.48-10 10-10 10 4.48 10 10zM502 646a6 6 0 0 1 6-6h386a6 6 0 0 1 6 6v8a6 6 0 0 1-6 6H508a6 6 0 0 1-6-6zM420 686a6 6 0 0 1 6-6h468a6 6 0 0 1 6 6v208a6 6 0 0 1-6 6H426a6 6 0 0 1-6-6z" stroke="#5e5e5e" stroke-width="3" fill="#fff"/><path d="M434 696a6 6 0 0 1 6-6h32a6 6 0 0 1 6 6v188a6 6 0 0 1-6 6h-32a6 6 0 0 1-6-6z" stroke="#de5f85" stroke-width="3" fill="#f5b5c8"/><path d="M485 696a6 6 0 0 1 6-6h388a6 6 0 0 1 6 6v188a6 6 0 0 1-6 6H491a6 6 0 0 1-6-6z" stroke="#008573" stroke-width="3" fill="#00c2a8"/><path d="M400 987.5a6 6 0 0 1 6-6h508a6 6 0 0 1 6 6v288a6 6 0 0 1-6 6H406a6 6 0 0 1-6-6z" stroke="#5e5e5e" stroke-width="3" fill="#ccc"/><path d="M435 1011.5c0 5.52-4.48 10-10 10s-10-4.48-10-10 4.48-10 10-10 10 4.48 10 10zM462 1011.5c0 5.52-4.48 10-10 10s-10-4.48-10-10 4.48-10 10-10 10 4.48 10 10zM489 1011.5c0 5.52-4.48 10-10 10s-10-4.48-10-10 4.48-10 10-10 10 4.48 10 10zM502 1007.5a6 6 0 0 1 6-6h386a6 6 0 0 1 6 6v8a6 6 0 0 1-6 6H508a6 6 0 0 1-6-6zM420 1047.5a6 6 0 0 1 6-6h468a6 6 0 0 1 6 6v208a6 6 0 0 1-6 6H426a6 6 0 0 1-6-6z" stroke="#5e5e5e" stroke-width="3" fill="#fff"/><path d="M434 1057.5a6 6 0 0 1 6-6h32a6 6 0 0 1 6 6v188a6 6 0 0 1-6 6h-32a6 6 0 0 1-6-6z" stroke="#de5f85" stroke-width="3" fill="#f5b5c8"/><path d="M485 1057.5a6 6 0 0 1 6-6h388a6 6 0 0 1 6 6v188a6 6 0 0 1-6 6H491a6 6 0 0 1-6-6z" stroke="#834187" stroke-width="3" fill="#b391b5"/><defs><path fill="#333" d="M169-182c-1-43-94-46-97-3 18 66 151 10 154 114 3 95-165 93-204 36-6-8-10-19-12-30l50-8c3 46 112 56 116 5-17-69-150-10-154-114-4-87 153-88 188-35 5 8 8 18 10 28" id="p"/><path fill="#333" d="M136-208V0H84v-208H4v-40h212v40h-80" id="q"/><path fill="#333" d="M199 0l-22-63H83L61 0H9l90-248h61L250 0h-51zm-33-102l-36-108c-10 38-24 72-36 108h72" id="r"/><path fill="#333" d="M67-125c0 54 23 88 75 88 28 0 53-7 68-21v-34h-60v-39h108v91C232-14 192 4 140 4 58 4 20-42 15-125 8-236 126-280 215-234c19 10 29 26 37 47l-47 15c-11-23-29-39-63-39-53 1-75 33-75 86" id="s"/><path fill="#333" d="M24 0v-248h195v40H76v63h132v40H76v65h150V0H24" id="t"/><g id="a"><use transform="matrix(0.04938271604938272,0,0,0.04938271604938272,0,0)" xlink:href="#p"/><use transform="matrix(0.04938271604938272,0,0,0.04938271604938272,11.851851851851853,0)" xlink:href="#q"/><use transform="matrix(0.04938271604938272,0,0,0.04938271604938272,21.333333333333336,0)" xlink:href="#r"/><use transform="matrix(0.04938271604938272,0,0,0.04938271604938272,34.12345679012346,0)" xlink:href="#s"/><use transform="matrix(0.04938271604938272,0,0,0.04938271604938272,47.95061728395062,0)" xlink:href="#t"/></g><path fill="#333" d="M23 0v-37h61v-169l-59 37v-38l62-41h46v211h57V0H23" id="u"/><use transform="matrix(0.04938271604938272,0,0,0.04938271604938272,0,0)" xlink:href="#u" id="b"/><path fill="#333" d="M182-182c0 78-84 86-111 141h115V0H12c-6-101 99-100 120-180 1-22-12-31-33-32-23 0-32 14-35 34l-49-3c5-45 32-70 84-70 51 0 83 22 83 69" id="v"/><use transform="matrix(0.04938271604938272,0,0,0.04938271604938272,0,0)" xlink:href="#v" id="c"/><path fill="#333" d="M266 0h-40l-56-210L115 0H75L2-248h35L96-30l15-64 43-154h32l59 218 59-218h35" id="w"/><path fill="#333" d="M100-194c63 0 86 42 84 106H49c0 40 14 67 53 68 26 1 43-12 49-29l28 8c-11 28-37 45-77 45C44 4 14-33 15-96c1-61 26-98 85-98zm52 81c6-60-76-77-97-28-3 7-6 17-6 28h103" id="x"/><path fill="#333" d="M24 0v-261h32V0H24" id="y"/><path fill="#333" d="M96-169c-40 0-48 33-48 73s9 75 48 75c24 0 41-14 43-38l32 2c-6 37-31 61-74 61-59 0-76-41-82-99-10-93 101-131 147-64 4 7 5 14 7 22l-32 3c-4-21-16-35-41-35" id="z"/><path fill="#333" d="M100-194c62-1 85 37 85 99 1 63-27 99-86 99S16-35 15-95c0-66 28-99 85-99zM99-20c44 1 53-31 53-75 0-43-8-75-51-75s-53 32-53 75 10 74 51 75" id="A"/><path fill="#333" d="M210-169c-67 3-38 105-44 169h-31v-121c0-29-5-50-35-48C34-165 62-65 56 0H25l-1-190h30c1 10-1 24 2 32 10-44 99-50 107 0 11-21 27-35 58-36 85-2 47 119 55 194h-31v-121c0-29-5-49-35-48" id="B"/><g id="d"><use transform="matrix(0.06172839506172839,0,0,0.06172839506172839,0,0)" xlink:href="#w"/><use transform="matrix(0.06172839506172839,0,0,0.06172839506172839,20.493827160493826,0)" xlink:href="#x"/><use transform="matrix(0.06172839506172839,0,0,0.06172839506172839,32.839506172839506,0)" xlink:href="#y"/><use transform="matrix(0.06172839506172839,0,0,0.06172839506172839,37.71604938271605,0)" xlink:href="#z"/><use transform="matrix(0.06172839506172839,0,0,0.06172839506172839,48.827160493827165,0)" xlink:href="#A"/><use transform="matrix(0.06172839506172839,0,0,0.06172839506172839,61.17283950617284,0)" xlink:href="#B"/><use transform="matrix(0.06172839506172839,0,0,0.06172839506172839,79.62962962962963,0)" xlink:href="#x"/></g><path fill="#333" d="M118-107v75H92v-75H18v-26h74v-75h26v75h74v26h-74" id="C"/><use transform="matrix(0.06172839506172839,0,0,0.06172839506172839,0,0)" xlink:href="#C" id="e"/><path fill="#333" d="M141-36C126-15 110 5 73 4 37 3 15-17 15-53c-1-64 63-63 125-63 3-35-9-54-41-54-24 1-41 7-42 31l-33-3c5-37 33-52 76-52 45 0 72 20 72 64v82c-1 20 7 32 28 27v20c-31 9-61-2-59-35zM48-53c0 20 12 33 32 33 41-3 63-29 60-74-43 2-92-5-92 41" id="D"/><path fill="#333" d="M84 4C-5 8 30-112 23-190h32v120c0 31 7 50 39 49 72-2 45-101 50-169h31l1 190h-30c-1-10 1-25-2-33-11 22-28 36-60 37" id="E"/><path fill="#333" d="M59-47c-2 24 18 29 38 22v24C64 9 27 4 27-40v-127H5v-23h24l9-43h21v43h35v23H59v120" id="F"/><path fill="#333" d="M106-169C34-169 62-67 57 0H25v-261h32l-1 103c12-21 28-36 61-36 89 0 53 116 60 194h-32v-121c2-32-8-49-39-48" id="G"/><path fill="#333" d="M117-194c89-4 53 116 60 194h-32v-121c0-31-8-49-39-48C34-167 62-67 57 0H25l-1-190h30c1 10-1 24 2 32 11-22 29-35 61-36" id="H"/><path fill="#333" d="M24-231v-30h32v30H24zM24 0v-190h32V0H24" id="I"/><g id="f"><use transform="matrix(0.06172839506172839,0,0,0.06172839506172839,0,0)" xlink:href="#D"/><use transform="matrix(0.06172839506172839,0,0,0.06172839506172839,12.345679012345679,0)" xlink:href="#E"/><use transform="matrix(0.06172839506172839,0,0,0.06172839506172839,24.691358024691358,0)" xlink:href="#F"/><use transform="matrix(0.06172839506172839,0,0,0.06172839506172839,30.864197530864196,0)" xlink:href="#G"/><use transform="matrix(0.06172839506172839,0,0,0.06172839506172839,43.20987654320987,0)" xlink:href="#x"/><use transform="matrix(0.06172839506172839,0,0,0.06172839506172839,55.55555555555555,0)" xlink:href="#H"/><use transform="matrix(0.06172839506172839,0,0,0.06172839506172839,67.90123456790123,0)" xlink:href="#F"/><use transform="matrix(0.06172839506172839,0,0,0.06172839506172839,74.07407407407406,0)" xlink:href="#I"/><use transform="matrix(0.06172839506172839,0,0,0.06172839506172839,78.9506172839506,0)" xlink:href="#z"/><use transform="matrix(0.06172839506172839,0,0,0.06172839506172839,90.06172839506172,0)" xlink:href="#D"/><use transform="matrix(0.06172839506172839,0,0,0.06172839506172839,102.4074074074074,0)" xlink:href="#F"/><use transform="matrix(0.06172839506172839,0,0,0.06172839506172839,108.58024691358024,0)" xlink:href="#I"/><use transform="matrix(0.06172839506172839,0,0,0.06172839506172839,113.45679012345678,0)" xlink:href="#A"/><use transform="matrix(0.06172839506172839,0,0,0.06172839506172839,125.80246913580247,0)" xlink:href="#H"/></g><path fill="#333" d="M190 0L58-211 59 0H30v-248h39L202-35l-2-213h31V0h-41" id="J"/><path fill="#333" d="M108 0H70L1-190h34L89-25l56-165h34" id="K"/><path fill="#333" d="M177-190C167-65 218 103 67 71c-23-6-38-20-44-43l32-5c15 47 100 32 89-28v-30C133-14 115 1 83 1 29 1 15-40 15-95c0-56 16-97 71-98 29-1 48 16 59 35 1-10 0-23 2-32h30zM94-22c36 0 50-32 50-73 0-42-14-75-50-75-39 0-46 34-46 75s6 73 46 73" id="L"/><g id="g"><use transform="matrix(0.06172839506172839,0,0,0.06172839506172839,0,0)" xlink:href="#J"/><use transform="matrix(0.06172839506172839,0,0,0.06172839506172839,15.987654320987653,0)" xlink:href="#D"/><use transform="matrix(0.06172839506172839,0,0,0.06172839506172839,28.333333333333332,0)" xlink:href="#K"/><use transform="matrix(0.06172839506172839,0,0,0.06172839506172839,39.44444444444444,0)" xlink:href="#I"/><use transform="matrix(0.06172839506172839,0,0,0.06172839506172839,44.32098765432099,0)" xlink:href="#L"/><use transform="matrix(0.06172839506172839,0,0,0.06172839506172839,56.666666666666664,0)" xlink:href="#D"/><use transform="matrix(0.06172839506172839,0,0,0.06172839506172839,69.01234567901234,0)" xlink:href="#F"/><use transform="matrix(0.06172839506172839,0,0,0.06172839506172839,75.18518518518518,0)" xlink:href="#I"/><use transform="matrix(0.06172839506172839,0,0,0.06172839506172839,80.06172839506172,0)" xlink:href="#A"/><use transform="matrix(0.06172839506172839,0,0,0.06172839506172839,92.4074074074074,0)" xlink:href="#H"/></g><path fill="#333" d="M115-194c55 1 70 41 70 98S169 2 115 4C84 4 66-9 55-30l1 105H24l-1-265h31l2 30c10-21 28-34 59-34zm-8 174c40 0 45-34 45-75s-6-73-45-74c-42 0-51 32-51 76 0 43 10 73 51 73" id="M"/><g id="h"><use transform="matrix(0.06172839506172839,0,0,0.06172839506172839,0,0)" xlink:href="#M"/><use transform="matrix(0.06172839506172839,0,0,0.06172839506172839,12.345679012345679,0)" xlink:href="#D"/><use transform="matrix(0.06172839506172839,0,0,0.06172839506172839,24.691358024691358,0)" xlink:href="#H"/><use transform="matrix(0.06172839506172839,0,0,0.06172839506172839,37.03703703703704,0)" xlink:href="#x"/></g><path fill="#333" d="M33 0v-248h34V0H33" id="N"/><g id="i"><use transform="matrix(0.06172839506172839,0,0,0.06172839506172839,0,0)" xlink:href="#N"/><use transform="matrix(0.06172839506172839,0,0,0.06172839506172839,6.172839506172839,0)" xlink:href="#H"/><use transform="matrix(0.06172839506172839,0,0,0.06172839506172839,18.51851851851852,0)" xlink:href="#M"/><use transform="matrix(0.06172839506172839,0,0,0.06172839506172839,30.864197530864196,0)" xlink:href="#E"/><use transform="matrix(0.06172839506172839,0,0,0.06172839506172839,43.20987654320987,0)" xlink:href="#F"/></g><path fill="#333" d="M101-234c-31-9-42 10-38 44h38v23H63V0H32v-167H5v-23h27c-7-52 17-82 69-68v24" id="O"/><path fill="#333" d="M114-163C36-179 61-72 57 0H25l-1-190h30c1 12-1 29 2 39 6-27 23-49 58-41v29" id="P"/><g id="j"><use transform="matrix(0.06172839506172839,0,0,0.06172839506172839,0,0)" xlink:href="#O"/><use transform="matrix(0.06172839506172839,0,0,0.06172839506172839,6.172839506172839,0)" xlink:href="#A"/><use transform="matrix(0.06172839506172839,0,0,0.06172839506172839,18.51851851851852,0)" xlink:href="#P"/><use transform="matrix(0.06172839506172839,0,0,0.06172839506172839,25.864197530864196,0)" xlink:href="#B"/></g><path fill="#333" d="M233-177c-1 41-23 64-60 70L243 0h-38l-65-103H63V0H30v-248c88 3 205-21 203 71zM63-129c60-2 137 13 137-47 0-61-80-42-137-45v92" id="Q"/><path fill="#333" d="M135-143c-3-34-86-38-87 0 15 53 115 12 119 90S17 21 10-45l28-5c4 36 97 45 98 0-10-56-113-15-118-90-4-57 82-63 122-42 12 7 21 19 24 35" id="R"/><g id="k"><use transform="matrix(0.06172839506172839,0,0,0.06172839506172839,0,0)" xlink:href="#Q"/><use transform="matrix(0.06172839506172839,0,0,0.06172839506172839,15.987654320987653,0)" xlink:href="#x"/><use transform="matrix(0.06172839506172839,0,0,0.06172839506172839,28.333333333333332,0)" xlink:href="#R"/><use transform="matrix(0.06172839506172839,0,0,0.06172839506172839,39.44444444444444,0)" xlink:href="#E"/><use transform="matrix(0.06172839506172839,0,0,0.06172839506172839,51.79012345679012,0)" xlink:href="#y"/><use transform="matrix(0.06172839506172839,0,0,0.06172839506172839,56.666666666666664,0)" xlink:href="#F"/><use transform="matrix(0.06172839506172839,0,0,0.06172839506172839,62.839506172839506,0)" xlink:href="#R"/></g><path fill="#333" d="M85-194c31 0 48 13 60 33l-1-100h32l1 261h-30c-2-10 0-23-3-31C134-8 116 4 85 4 32 4 16-35 15-94c0-66 23-100 70-100zm9 24c-40 0-46 34-46 75 0 40 6 74 45 74 42 0 51-32 51-76 0-42-9-74-50-73" id="S"/><path fill="#333" d="M115-194c53 0 69 39 70 98 0 66-23 100-70 100C84 3 66-7 56-30L54 0H23l1-261h32v101c10-23 28-34 59-34zm-8 174c40 0 45-34 45-75 0-40-5-75-45-74-42 0-51 32-51 76 0 43 10 73 51 73" id="T"/><g id="l"><use transform="matrix(0.06172839506172839,0,0,0.06172839506172839,0,0)" xlink:href="#S"/><use transform="matrix(0.06172839506172839,0,0,0.06172839506172839,12.345679012345679,0)" xlink:href="#D"/><use transform="matrix(0.06172839506172839,0,0,0.06172839506172839,24.691358024691358,0)" xlink:href="#R"/><use transform="matrix(0.06172839506172839,0,0,0.06172839506172839,35.80246913580247,0)" xlink:href="#G"/><use transform="matrix(0.06172839506172839,0,0,0.06172839506172839,48.148148148148145,0)" xlink:href="#T"/><use transform="matrix(0.06172839506172839,0,0,0.06172839506172839,60.49382716049382,0)" xlink:href="#A"/><use transform="matrix(0.06172839506172839,0,0,0.06172839506172839,72.8395061728395,0)" xlink:href="#D"/><use transform="matrix(0.06172839506172839,0,0,0.06172839506172839,85.18518518518519,0)" xlink:href="#P"/><use transform="matrix(0.06172839506172839,0,0,0.06172839506172839,92.53086419753087,0)" xlink:href="#S"/></g><path fill="#333" d="M185-189c-5-48-123-54-124 2 14 75 158 14 163 119 3 78-121 87-175 55-17-10-28-26-33-46l33-7c5 56 141 63 141-1 0-78-155-14-162-118-5-82 145-84 179-34 5 7 8 16 11 25" id="U"/><g id="m"><use transform="matrix(0.06172839506172839,0,0,0.06172839506172839,0,0)" xlink:href="#U"/><use transform="matrix(0.06172839506172839,0,0,0.06172839506172839,14.814814814814813,0)" xlink:href="#I"/><use transform="matrix(0.06172839506172839,0,0,0.06172839506172839,19.691358024691354,0)" xlink:href="#B"/><use transform="matrix(0.06172839506172839,0,0,0.06172839506172839,38.14814814814814,0)" xlink:href="#E"/><use transform="matrix(0.06172839506172839,0,0,0.06172839506172839,50.493827160493815,0)" xlink:href="#y"/><use transform="matrix(0.06172839506172839,0,0,0.06172839506172839,55.37037037037036,0)" xlink:href="#D"/><use transform="matrix(0.06172839506172839,0,0,0.06172839506172839,67.71604938271604,0)" xlink:href="#F"/><use transform="matrix(0.06172839506172839,0,0,0.06172839506172839,73.88888888888887,0)" xlink:href="#I"/><use transform="matrix(0.06172839506172839,0,0,0.06172839506172839,78.76543209876542,0)" xlink:href="#A"/><use transform="matrix(0.06172839506172839,0,0,0.06172839506172839,91.1111111111111,0)" xlink:href="#H"/></g><path fill="#333" d="M206 0h-36l-40-164L89 0H53L-1-190h32L70-26l43-164h34l41 164 42-164h31" id="V"/><path fill="#333" d="M16-82v-28h88v28H16" id="W"/><g id="n"><use transform="matrix(0.06172839506172839,0,0,0.06172839506172839,0,0)" xlink:href="#V"/><use transform="matrix(0.06172839506172839,0,0,0.06172839506172839,15.987654320987653,0)" xlink:href="#P"/><use transform="matrix(0.06172839506172839,0,0,0.06172839506172839,23.333333333333332,0)" xlink:href="#D"/><use transform="matrix(0.06172839506172839,0,0,0.06172839506172839,35.67901234567901,0)" xlink:href="#M"/><use transform="matrix(0.06172839506172839,0,0,0.06172839506172839,48.02469135802469,0)" xlink:href="#W"/><use transform="matrix(0.06172839506172839,0,0,0.06172839506172839,55.37037037037037,0)" xlink:href="#E"/><use transform="matrix(0.06172839506172839,0,0,0.06172839506172839,67.71604938271605,0)" xlink:href="#M"/></g><path fill="#333" d="M128-127c34 4 56 21 59 58 7 91-148 94-172 28-4-9-6-17-7-26l51-5c1 24 16 35 40 36 23 0 39-12 38-36-1-31-31-36-65-34v-40c32 2 59-3 59-33 0-20-13-33-34-33s-33 13-35 32l-50-3c6-44 37-68 86-68 50 0 83 20 83 66 0 35-22 52-53 58" id="X"/><use transform="matrix(0.04938271604938272,0,0,0.04938271604938272,0,0)" xlink:href="#X" id="o"/></defs></g></svg>